<svg width="149" height="131" viewBox="0 0 149 131" fill="none" xmlns="http://www.w3.org/2000/svg">
<path d="M5.16846 78.6199C19.6815 69.6504 35.939 63.5197 52.775 60.5705C69.7316 57.579 87.2243 57.6485 104.084 60.92C113.527 62.7407 122.785 65.5744 131.536 69.4669C134.181 70.6343 136.132 66.5619 133.487 65.3945C117.168 58.2763 99.5332 54.5331 81.7078 53.9036C64.0454 53.3521 46.1963 56.1163 29.4893 61.9315C20.0922 65.2403 11.1159 69.552 2.59942 74.7851C0.203485 76.4412 2.7301 80.1556 5.16846 78.6199Z" fill="#259D4A"/>
<path d="M110.816 40.8131C121.884 48.0195 130.906 58.4517 136.441 70.5179C137.313 69.5338 138.104 68.5106 138.976 67.5264C127.684 66.2216 116.217 66.5355 105.102 68.6209C103.894 68.8432 102.941 69.7884 103.042 71.039C103.102 72.1691 104.252 73.3212 105.46 73.0989C116.213 71.1407 127.234 70.7131 138.162 71.9433C139.699 72.079 141.493 70.635 140.697 68.9517C134.578 55.8046 124.898 44.6564 112.685 36.7016C111.705 36.0314 110.142 36.7848 109.674 37.7622C109.17 39.0229 109.753 40.1038 110.816 40.8131Z" fill="#259D4A"/>
</svg>
