<svg width="382" height="102" viewBox="0 0 382 102" fill="none" xmlns="http://www.w3.org/2000/svg">
<path d="M241.86 11.5678C285.647 13.9269 334.083 22.5036 362.421 37.1431C389.407 51.0423 389.279 70.5568 354.697 84.1625C321.216 97.3118 270.603 100.221 229.651 101.431C186.569 102.689 142.7 101.707 101.872 96.9893C66.3247 92.8929 25.4421 85.8801 7.56292 70.8879C-4.75932 60.4976 0.97248 48.222 15.9784 38.028C54.8147 11.6648 136.653 -1.15502 201.467 0.906889C245.758 2.30522 284.443 11.7413 311.549 26.3894C314.118 27.7796 308.601 29.5022 306.18 28.1284C253.15 -0.491552 160.854 -2.61981 84.2537 15.363C54.9347 22.2569 25.9596 32.8602 12.6335 46.6764C-0.860844 60.6721 13.2883 73.215 37.2943 81.2708C72.4115 93.0486 120.84 97.1345 165.293 98.4836C211.685 99.9165 261.348 99.1939 307.187 92.4373C327.809 89.4004 347.998 84.5835 362.078 76.8346C378.962 67.4991 379.64 55.5083 368.254 45.9372C346.15 27.255 288.447 17.319 242.526 14.5374L240.38 14.4159C236.276 14.2035 237.755 11.3474 241.86 11.5678Z" fill="#259D4A"/>
</svg>
