<svg width="103" height="104" viewBox="0 0 103 104" fill="none" xmlns="http://www.w3.org/2000/svg">
<circle cx="51.5" cy="52.5" r="51.5" fill="#16C74D" fill-opacity="0.11"/>
<circle cx="85" cy="14" r="13" fill="#0B434B"/>
<path d="M76.0342 59.6625L72.2155 53V49.9125C72.2155 37.3188 61.978 27 49.303 27C27.7717 27 18.5092 53.8125 34.5155 67.3813V78.1875C34.5155 78.675 34.8405 79 35.328 79H62.303C62.7905 79 63.1155 78.675 63.1155 78.1875V73.8H67.0155C69.128 73.8 70.8342 72.0938 70.8342 69.9813V62.425H74.4092C75.7905 62.3438 76.6842 60.8813 76.0342 59.6625ZM74.4092 60.7188H70.0217C69.5342 60.7188 69.2092 61.0438 69.2092 61.5312V69.9C69.2092 71.1187 68.2342 72.0938 67.0155 72.0938H62.303C61.8155 72.0938 61.4905 72.4188 61.4905 72.9062V77.375H36.1405V67.0562C36.1405 66.8125 36.0592 66.5687 35.8155 66.4062C20.4592 53.7312 29.3967 28.625 49.303 28.625C61.0842 28.625 70.5905 38.2125 70.5905 49.9125V53.1625C70.5905 53.5688 70.5905 53.325 74.5717 60.3937C74.653 60.5562 74.5717 60.7188 74.4092 60.7188Z" fill="#0B434B"/>
<path d="M59.1344 38.375C59.0531 38.375 41.9094 38.375 41.7469 38.375C39.5531 38.375 37.7656 40.1625 37.7656 42.3562C37.7656 46.175 37.7656 49.6687 37.7656 59.7437C37.7656 61.9375 39.5531 63.725 41.7469 63.725C41.8281 63.725 40.7719 63.725 59.1344 63.8062C61.3281 63.8062 63.1156 62.0188 63.1156 59.825C63.1156 56.0063 63.1156 52.5125 63.1156 42.3562C63.1156 40.1625 61.3281 38.375 59.1344 38.375ZM61.4906 42.275V50.1562H59.7844C59.5406 49.1812 58.9719 48.3687 58.0781 47.9625C56.9406 47.3937 55.6406 47.3937 54.6656 48.0437C53.8531 48.5312 53.3656 49.2625 53.1219 50.1562H51.3344V47.7188C51.3344 47.2312 51.0094 46.9062 50.5219 46.9062C49.5469 46.9062 48.6531 46.0938 48.6531 45.0375C48.6531 43.9813 49.4656 43.1687 50.5219 43.1687C51.0094 43.1687 51.3344 42.8437 51.3344 42.3562V39.9187H59.2156C60.4344 40 61.4906 41.0562 61.4906 42.275ZM39.3906 42.275C39.3906 40.975 40.4469 39.9187 41.7469 39.9187H49.6281V41.7063C48.0844 42.1125 46.9469 43.4125 46.9469 45.1187C46.9469 46.7437 48.0844 48.125 49.6281 48.45V50.1562H47.1906C46.7031 50.1562 46.3781 50.5625 46.3781 50.9688C46.3781 53.4062 42.7219 53.4062 42.7219 50.9688C42.7219 50.4812 42.3969 50.1562 41.9094 50.1562H39.4719V42.275H39.3906ZM39.3906 59.7437V51.8625H41.0969C41.5031 53.4875 42.8844 54.5438 44.5094 54.5438C46.0531 54.5438 47.5156 53.4875 47.8406 51.8625H49.6281V54.3C49.6281 54.7875 49.9531 55.1125 50.4406 55.1125C51.4156 55.1125 52.3094 55.925 52.3094 56.9813C52.3094 58.0375 51.4969 58.85 50.4406 58.85C49.9531 58.85 49.6281 59.175 49.6281 59.6625V62.1H41.7469C40.4469 62.0188 39.3906 61.0437 39.3906 59.7437ZM61.4906 59.7437C61.4906 61.0437 60.4344 62.1 59.1344 62.1H51.2531V60.3125C52.7969 59.9062 53.9344 58.6062 53.9344 56.9C53.9344 55.275 52.7969 53.8938 51.2531 53.5688V51.8625H53.6906C54.0156 51.8625 54.3406 51.6187 54.4219 51.2937V51.2125C54.4219 51.1312 54.5031 51.05 54.5031 50.9688C54.5031 50.3188 54.8281 49.75 55.3969 49.425C55.7219 49.2625 56.3719 48.9375 57.2656 49.425C57.8344 49.6688 58.1594 50.3188 58.1594 51.05C58.1594 51.5375 58.4844 51.8625 58.9719 51.8625H61.4094V59.7437H61.4906Z" fill="#0B434B"/>
<path d="M84.9994 14.9551L80.1389 19.8156C80.0775 19.8784 80.0037 19.9278 79.9222 19.9605C79.8407 19.9933 79.7532 20.0087 79.6654 20.0058C79.5341 20.0046 79.406 19.9649 79.297 19.8915C79.1881 19.8182 79.103 19.7145 79.0524 19.5932C79.0019 19.472 78.988 19.3386 79.0126 19.2095C79.0371 19.0805 79.099 18.9615 79.1906 18.8673L84.0511 14.0068L79.1906 9.14628C79.1278 9.08488 79.0784 9.01108 79.0457 8.92958C79.0129 8.84807 78.9975 8.76065 79.0003 8.67286C78.9984 8.58497 79.0142 8.49759 79.0469 8.416C79.0796 8.33441 79.1286 8.2603 79.1907 8.19814C79.2529 8.13597 79.327 8.08706 79.4086 8.05433C79.4902 8.02161 79.5776 8.00576 79.6654 8.00775C79.7532 8.00489 79.8407 8.02032 79.9222 8.05307C80.0037 8.08582 80.0775 8.13517 80.1389 8.19799L84.9994 13.0585L89.8599 8.19799C89.953 8.1036 90.0722 8.03921 90.2022 8.01306C90.3322 7.98691 90.467 8.00022 90.5894 8.05126C90.7118 8.10229 90.8161 8.18874 90.889 8.2995C90.9619 8.41026 91 8.54028 90.9984 8.67286C91.0013 8.76065 90.9859 8.84807 90.9531 8.92958C90.9204 9.01108 90.871 9.08488 90.8082 9.14628L85.9477 14.0068L90.8082 18.8673C90.9271 18.9944 90.9919 19.1628 90.989 19.3368C90.9861 19.5108 90.9156 19.6769 90.7926 19.8C90.6695 19.923 90.5034 19.9935 90.3294 19.9964C90.1554 19.9993 89.987 19.9345 89.8599 19.8156L84.9994 14.9551Z" fill="#0B434B"/>
<circle cx="84.5" cy="14.5" r="14.5" fill="#259D4A"/>
<path d="M84.498 15.3704C84.1439 15.7237 83.5706 15.7235 83.2169 15.3698L78.8901 11.043C78.5378 10.6907 77.9673 10.6888 77.6127 11.0388L76.9931 11.6502C76.6352 12.0035 76.6333 12.5805 76.9888 12.9361L83.2163 19.1636C83.5702 19.5175 84.144 19.5175 84.498 19.1636L99.3236 4.33794C99.6775 3.98403 99.6775 3.41023 99.3236 3.05631L98.7201 2.45275C98.3664 2.09906 97.793 2.0988 97.439 2.45218L84.498 15.3704Z" fill="white"/>
</svg>
