<svg width="103" height="104" viewBox="0 0 103 104" fill="none" xmlns="http://www.w3.org/2000/svg">
<circle cx="51.5" cy="52.5" r="51.5" fill="#16C74D" fill-opacity="0.11"/>
<circle cx="85" cy="14" r="13" fill="#0B434B"/>
<path d="M40.3359 52.8589C40.339 55.5596 41.4132 58.1489 43.3229 60.0586C45.2325 61.9682 47.8218 63.0424 50.5225 63.0455C64.0366 62.486 64.0321 43.2291 50.5224 42.6719C47.8216 42.675 45.2324 43.7493 43.3227 45.659C41.413 47.5688 40.3389 50.1582 40.3359 52.8589ZM58.7089 52.8589C58.7064 55.0294 57.8431 57.1102 56.3084 58.6449C54.7737 60.1797 52.6929 61.043 50.5224 61.0455C39.6767 60.6337 39.6801 45.0822 50.5225 44.6719C52.693 44.6746 54.7738 45.538 56.3085 47.0728C57.8432 48.6076 58.7065 50.6885 58.7089 52.8589Z" fill="#0B434B"/>
<path d="M63.2051 64.531L58.1748 62.8611C57.9233 62.7784 57.6493 62.7987 57.4127 62.9177C57.1762 63.0367 56.9965 63.2446 56.913 63.4958C56.8295 63.7471 56.849 64.0212 56.9673 64.2581C57.0856 64.495 57.293 64.6753 57.544 64.7596L62.5733 66.429C63.9103 66.8741 65.0731 67.7293 65.8964 68.8731C66.7196 70.0168 67.1615 71.3909 67.1593 72.8001V76.8001C67.1589 77.1183 67.0324 77.4234 66.8074 77.6484C66.5823 77.8734 66.2772 78 65.959 78.0003H35.0889C34.7694 78.0012 34.4626 77.8753 34.2358 77.6503C34.009 77.4253 33.8806 77.1196 33.8789 76.8001V72.8001C33.8781 71.3899 34.3217 70.0152 35.1467 68.8715C35.9717 67.7278 37.1361 66.8731 38.4746 66.429L43.4951 64.7591C43.7467 64.6754 43.9548 64.4952 44.0736 64.2582C44.1924 64.0211 44.2121 63.7465 44.1284 63.4949C44.0448 63.2433 43.8646 63.0352 43.6275 62.9164C43.3904 62.7977 43.1159 62.778 42.8643 62.8616L37.8428 64.5315C36.1058 65.108 34.5946 66.2172 33.524 67.7016C32.4534 69.1859 31.8778 70.9699 31.8789 72.8001V76.8001C31.8812 77.6498 32.2205 78.4639 32.8223 79.0639C33.424 79.6638 34.2392 80.0005 35.0889 80.0003H65.959C66.8075 79.9994 67.6209 79.6619 68.2209 79.0619C68.8209 78.462 69.1583 77.6485 69.1593 76.8001V72.8001C69.1618 70.9709 68.5878 69.1874 67.519 67.703C66.4501 66.2186 64.9407 65.1087 63.2051 64.531Z" fill="#0B434B"/>
<path d="M48.2012 28.7348L49.5244 27.4119V39.6699C49.5297 39.9317 49.6373 40.1809 49.8243 40.3642C50.0113 40.5474 50.2627 40.6501 50.5245 40.6501C50.7863 40.6501 51.0376 40.5474 51.2246 40.3641C51.4116 40.1809 51.5192 39.9316 51.5244 39.6698V27.4158L52.8438 28.7348C53.0325 28.9163 53.2849 29.0166 53.5468 29.014C53.8087 29.0115 54.0591 28.9063 54.2442 28.7211C54.4294 28.536 54.5345 28.2855 54.5371 28.0237C54.5396 27.7618 54.4393 27.5094 54.2578 27.3207L51.2295 24.293C51.1367 24.2001 51.0265 24.1264 50.9051 24.0761C50.7838 24.0259 50.6538 24 50.5225 24C50.3912 24 50.2611 24.0259 50.1398 24.0761C50.0185 24.1264 49.9083 24.2001 49.8155 24.293L46.7871 27.3208C46.6056 27.5095 46.5053 27.7619 46.5079 28.0238C46.5104 28.2856 46.6156 28.5361 46.8007 28.7212C46.9859 28.9064 47.2363 29.0116 47.4982 29.0141C47.76 29.0166 48.0125 28.9164 48.2012 28.7348Z" fill="#0B434B"/>
<path d="M32.7329 39.8611C32.8258 39.7683 32.8994 39.6581 32.9497 39.5367C33 39.4154 33.0258 39.2854 33.0258 39.1541C33.0258 39.0228 33 38.8927 32.9497 38.7714C32.8994 38.6501 32.8258 38.5399 32.7329 38.4471L31.3864 37.1009H39.4233C39.9602 37.1027 40.4745 37.3174 40.8533 37.698C41.2321 38.0785 41.4444 38.5937 41.4438 39.1306V42.4608C41.4477 42.7234 41.5548 42.974 41.7419 43.1583C41.929 43.3427 42.1812 43.446 42.4438 43.446C42.7065 43.446 42.9587 43.3427 43.1458 43.1583C43.3329 42.9739 43.4399 42.7234 43.4438 42.4607V39.1307C43.4439 38.0635 43.0206 37.0399 42.2668 36.2844C41.5131 35.529 40.4905 35.1033 39.4233 35.1009H31.437L32.7329 33.805C32.9145 33.6162 33.0149 33.3638 33.0124 33.1018C33.0099 32.8399 32.9047 32.5894 32.7195 32.4042C32.5342 32.219 32.2837 32.1138 32.0218 32.1114C31.7599 32.1089 31.5074 32.2093 31.3187 32.391L28.2905 35.4192C28.1044 35.6075 28 35.8615 28 36.1263C28 36.391 28.1044 36.645 28.2905 36.8333L31.3188 39.8611C31.4116 39.954 31.5219 40.0277 31.6432 40.0779C31.7645 40.1282 31.8945 40.1541 32.0258 40.1541C32.1572 40.1541 32.2872 40.1282 32.4085 40.0779C32.5298 40.0277 32.64 39.954 32.7329 39.8611Z" fill="#0B434B"/>
<path d="M73.1074 35.4188L70.0791 32.3905C69.9863 32.2977 69.876 32.224 69.7547 32.1738C69.6334 32.1235 69.5034 32.0977 69.3721 32.0977C69.2408 32.0977 69.1107 32.1235 68.9894 32.1738C68.8681 32.224 68.7579 32.2977 68.665 32.3905C68.5722 32.4834 68.4985 32.5936 68.4483 32.7149C68.398 32.8362 68.3722 32.9662 68.3722 33.0975C68.3722 33.2289 68.398 33.3589 68.4483 33.4802C68.4985 33.6015 68.5722 33.7117 68.665 33.8046L69.9609 35.1005H61.624C60.5555 35.1015 59.5311 35.5264 58.7755 36.2819C58.02 37.0374 57.5949 38.0618 57.5938 39.1303V42.4506C57.5987 42.7125 57.7063 42.962 57.8933 43.1455C58.0803 43.329 58.3318 43.4318 58.5938 43.4317C58.8558 43.4317 59.1073 43.3289 59.2943 43.1455C59.4813 42.962 59.5888 42.7124 59.5938 42.4505V39.1303C59.5945 38.5921 59.8087 38.0761 60.1893 37.6956C60.5699 37.3151 61.0858 37.1011 61.624 37.1005H70.0115L68.665 38.4467C68.4835 38.6354 68.3832 38.8878 68.3858 39.1497C68.3884 39.4116 68.4935 39.662 68.6787 39.8471C68.8639 40.0323 69.1143 40.1374 69.3762 40.14C69.638 40.1425 69.8904 40.0422 70.0792 39.8607L73.1074 36.8329C73.2936 36.6446 73.3979 36.3906 73.3979 36.1259C73.3979 35.8611 73.2936 35.6071 73.1074 35.4188Z" fill="#0B434B"/>
<path d="M84.9994 14.9551L80.1389 19.8156C80.0775 19.8784 80.0037 19.9278 79.9222 19.9605C79.8407 19.9933 79.7532 20.0087 79.6654 20.0058C79.5341 20.0046 79.406 19.9649 79.297 19.8915C79.1881 19.8182 79.103 19.7145 79.0524 19.5932C79.0019 19.472 78.988 19.3386 79.0126 19.2095C79.0371 19.0805 79.099 18.9615 79.1906 18.8673L84.0511 14.0068L79.1906 9.14628C79.1278 9.08488 79.0784 9.01108 79.0457 8.92958C79.0129 8.84807 78.9975 8.76065 79.0003 8.67286C78.9984 8.58497 79.0142 8.49759 79.0469 8.416C79.0796 8.33441 79.1286 8.2603 79.1907 8.19814C79.2529 8.13597 79.327 8.08706 79.4086 8.05433C79.4902 8.02161 79.5776 8.00576 79.6654 8.00775C79.7532 8.00489 79.8407 8.02032 79.9222 8.05307C80.0037 8.08582 80.0775 8.13517 80.1389 8.19799L84.9994 13.0585L89.8599 8.19799C89.953 8.1036 90.0722 8.03921 90.2022 8.01306C90.3322 7.98691 90.467 8.00022 90.5894 8.05126C90.7118 8.10229 90.8161 8.18874 90.889 8.2995C90.9619 8.41026 91 8.54028 90.9984 8.67286C91.0013 8.76065 90.9859 8.84807 90.9531 8.92958C90.9204 9.01108 90.871 9.08488 90.8082 9.14628L85.9477 14.0068L90.8082 18.8673C90.9271 18.9944 90.9919 19.1628 90.989 19.3368C90.9861 19.5108 90.9156 19.6769 90.7926 19.8C90.6695 19.923 90.5034 19.9935 90.3294 19.9964C90.1554 19.9993 89.987 19.9345 89.8599 19.8156L84.9994 14.9551Z" fill="#0B434B"/>
<circle cx="84.5" cy="14.5" r="14.5" fill="#259D4A"/>
<path d="M84.498 15.3704C84.1439 15.7237 83.5706 15.7235 83.2169 15.3698L78.8901 11.043C78.5378 10.6907 77.9673 10.6888 77.6127 11.0388L76.9931 11.6502C76.6352 12.0035 76.6333 12.5805 76.9888 12.9361L83.2163 19.1636C83.5702 19.5175 84.144 19.5175 84.498 19.1636L99.3236 4.33794C99.6775 3.98403 99.6775 3.41023 99.3236 3.05631L98.7201 2.45275C98.3664 2.09906 97.793 2.0988 97.439 2.45218L84.498 15.3704Z" fill="white"/>
</svg>
