<svg width="1440" height="197" viewBox="0 0 1440 197" fill="none" xmlns="http://www.w3.org/2000/svg">
<g clip-path="url(#clip0_1411_2372)">
<rect width="2706" height="197" transform="translate(-1747)" fill="white"/>
<rect width="98.6598" height="98.6598" transform="matrix(-0.00219699 -0.999998 -1 1.39695e-09 860.575 98.6592)" fill="#1C8999"/>
<path d="M761.915 98.6592L761.698 -0.000399627L860.575 98.6592L761.915 98.6592Z" fill="#1C8999"/>
<rect width="98.6598" height="98.6598" transform="matrix(0.00219699 0.999998 1 -1.39695e-09 860.358 0.00292969)" fill="#EDE6D8"/>
<path d="M909.801 49.3301C937.046 49.3301 959.18 71.4158 959.24 98.6599L860.58 98.6599C860.52 71.4158 882.557 49.3301 909.801 49.3301Z" fill="#0C434B"/>
<path d="M909.801 49.3301C937.046 49.3301 959.083 27.2444 959.023 0.000288399L860.363 0.000288536C860.423 27.2444 882.557 49.3301 909.801 49.3301Z" fill="#EDE6D8"/>
<rect width="100.321" height="98.6598" transform="matrix(-0.00219699 -0.999998 1 -1.39695e-09 762.14 198.321)" fill="#1C8999"/>
<path d="M762.134 198.324C762.105 185.15 764.629 172.104 769.56 159.933C774.491 147.761 781.734 136.702 790.875 127.386C800.016 118.071 810.876 110.681 822.835 105.639C834.794 100.598 847.617 98.0029 860.574 98.0029L860.794 198.324L762.134 198.324Z" fill="#BEE4E9"/>
<rect width="98.6598" height="98.6598" transform="matrix(-0.00219699 -0.999998 1 -1.39695e-09 860.796 196.659)" fill="#EDE6D8"/>
<rect width="49.3299" height="98.6598" transform="matrix(-0.00219699 -0.999998 1 -1.39695e-09 860.796 196.659)" fill="#1C8999"/>
<rect width="51.6698" height="98.6598" transform="matrix(-0.00219699 -0.999998 1 -1.39695e-09 860.801 198.999)" fill="#1C8999"/>
<rect x="565" y="-1.48828" width="198.005" height="198.005" fill="#0B434B"/>
<path d="M763.005 -1.504C737.002 -1.50085 711.255 3.64686 687.233 13.6452C663.212 23.6436 641.385 38.2968 623.001 56.7683C604.617 75.2397 590.035 97.1676 580.087 121.3C570.139 145.432 565.021 171.297 565.024 197.416L763.029 197.392L763.005 -1.504Z" fill="#EDE6D8"/>
<path d="M763.018 97.5002C750.016 97.5017 737.143 100.1 725.132 105.145C713.121 110.191 702.208 117.586 693.016 126.908C683.824 136.23 676.533 147.296 671.559 159.475C666.585 171.654 664.026 184.707 664.027 197.889L763.03 197.877L763.018 97.5002Z" fill="#1C8999"/>
<rect width="98.6598" height="98.6598" transform="matrix(-0.00934574 -0.999956 -0.999974 0.00714883 466.58 97.1631)" fill="#BEE4E9"/>
<path d="M367.922 97.8684L367 -0.787122L466.58 97.1631L367.922 97.8684Z" fill="#BEE4E9"/>
<rect width="98.6598" height="98.6598" transform="matrix(0.00934574 0.999956 0.999974 -0.00714883 465.658 -1.48535)" fill="#EDE6D8"/>
<path d="M515.451 47.4835C542.694 47.2887 564.986 69.2156 565.24 96.4586L466.583 97.1639C466.328 69.921 488.207 47.6783 515.451 47.4835Z" fill="#0C434B"/>
<path d="M515.451 47.4835C542.694 47.2887 564.573 25.0461 564.318 -2.1969L465.661 -1.49159C465.915 25.7514 488.207 47.6783 515.451 47.4835Z" fill="#EDE6D8"/>
<rect width="98.6598" height="98.6598" transform="matrix(-0.00934574 -0.999956 0.999974 -0.00714883 368.844 196.53)" fill="#1C8999"/>
<path d="M368.847 196.538C368.726 183.582 371.158 170.735 376.004 158.73C380.85 146.725 388.016 135.798 397.091 126.571C406.167 117.345 416.975 110 428.898 104.956C440.821 99.9129 453.627 97.2694 466.582 97.1768L467.504 195.832L368.847 196.538Z" fill="white"/>
<rect width="100.111" height="98.6598" transform="matrix(-0.00934574 -0.999956 0.999974 -0.00714883 467.518 197.276)" fill="#EDE6D8"/>
<rect width="50.0557" height="98.6598" transform="matrix(-0.00934574 -0.999956 0.999974 -0.00714883 467.518 197.276)" fill="#1C8999"/>
<path d="M467.518 197.276L467.05 147.223L565.707 146.518L566.187 197.278L467.518 197.276Z" fill="#1C8999"/>
<rect x="171.005" y="-0.980469" width="198.005" height="198.005" fill="#0B434B"/>
<path d="M369.005 -0.995688C343.003 -0.992537 317.255 4.13213 293.234 14.0857C269.212 24.0393 247.386 38.6269 229.001 57.0156C210.617 75.4043 196.035 97.2339 186.087 121.258C176.139 145.282 171.021 171.031 171.024 197.033L369.029 197.009L369.005 -0.995688Z" fill="#BEE4E9"/>
<path d="M369.018 98.009C356.017 98.0106 343.144 100.573 331.133 105.55C319.122 110.526 308.209 117.82 299.017 127.015C289.824 136.209 282.533 147.124 277.559 159.136C272.586 171.148 270.026 184.022 270.028 197.023L369.03 197.011L369.018 98.009Z" fill="#1C8999"/>
<rect x="171.844" y="197.139" width="198.005" height="198.581" transform="rotate(179.993 171.844 197.139)" fill="#0B434B"/>
<path d="M-26.4989 196.576C-0.45202 196.573 25.3392 191.448 49.4021 181.494C73.465 171.541 95.3285 156.953 113.744 138.565C132.16 120.176 146.767 98.3462 156.732 74.3219C166.697 50.2976 171.824 24.5492 171.821 -1.45312L-26.5229 -1.42908L-26.4989 196.576Z" fill="#EDE6D8"/>
<path d="M-26.6337 99.0157C-13.5721 99.0141 -0.638663 96.4144 11.4281 91.3649C23.4948 86.3154 34.4586 78.915 43.6934 69.5864C52.9283 60.2577 60.2533 49.1834 65.2503 36.9958C70.2473 24.8081 72.8184 11.7458 72.8168 -1.44531L-26.6459 -1.43325L-26.6337 99.0157Z" fill="white"/>
</g>
<g clip-path="url(#clip1_1411_2372)">
<rect width="2706" height="197" transform="translate(959)" fill="white"/>
<rect width="101.62" height="98.6598" transform="matrix(0.00922457 -0.999957 0.999975 0.00702766 1255.61 98.7617)" fill="#1C8999"/>
<path d="M1354.27 99.4551L1355.18 0.799445L1255.61 98.7617L1354.27 99.4551Z" fill="#1C8999"/>
<rect width="98.6598" height="99.9487" transform="matrix(-0.00219698 0.999998 -1 0 1256.18 -0.240234)" fill="#EDE6D8"/>
<path d="M1206.33 49.084C1178.87 49.084 1156.55 71.1697 1156.49 98.4138H1255.95C1256.01 71.1697 1233.8 49.084 1206.33 49.084Z" fill="#0C434B"/>
<path d="M1206.13 49.084C1178.55 49.084 1156.24 26.9983 1156.3 -0.245805H1256.17C1256.11 26.9983 1233.71 49.084 1206.13 49.084Z" fill="#EDE6D8"/>
<rect width="98.6598" height="98.6598" transform="matrix(0.00922457 -0.999957 -0.999975 -0.00702766 1353.36 198.115)" fill="#1C8999"/>
<path d="M1353.36 198.115C1353.48 185.159 1351.04 172.312 1346.2 160.308C1341.35 148.304 1334.18 137.377 1325.1 128.151C1316.03 118.926 1305.22 111.583 1293.29 106.541C1281.37 101.499 1268.57 98.8567 1255.61 98.7656L1254.7 197.421L1353.36 198.115Z" fill="#BEE4E9"/>
<rect width="99.3904" height="99.3683" transform="matrix(0.00219698 -0.999998 -1 0 1255.72 197.809)" fill="#EDE6D8"/>
<rect width="49.6952" height="98.6598" transform="matrix(0.00219698 -0.999998 -1 0 1255.01 197.809)" fill="#1C8999"/>
<path d="M1255.6 197.202L1255.67 148.114H1156.46L1156.35 197.809L1255.6 197.202Z" fill="#1C8999"/>
<rect width="98.6598" height="98.6598" transform="matrix(0.00218679 0.999998 1 -1.47349e-05 1057.85 98.6094)" fill="#1C8999"/>
<path d="M1156.51 98.3364L1156.72 197.267L1057.85 98.3379L1156.51 98.3364Z" fill="#1C8999"/>
<rect width="98.6598" height="98.6598" transform="matrix(-0.00218679 -0.999998 -1 1.47349e-05 1058.06 197.266)" fill="#EDE6D8"/>
<path d="M1008.63 147.94C981.383 147.94 959.249 125.855 959.189 98.6106L1057.85 98.6092C1057.91 125.853 1035.87 147.939 1008.63 147.94Z" fill="#0C434B"/>
<path d="M1008.63 147.94C981.383 147.94 959.346 170.026 959.405 197.27L1058.07 197.269C1058.01 170.025 1035.87 147.939 1008.63 147.94Z" fill="#EDE6D8"/>
<rect width="98.6598" height="98.6598" transform="matrix(0.00218679 0.999998 -1 1.47349e-05 1156.28 -0.0839844)" fill="#1C8999"/>
<path d="M1156.29 -0.0858379C1156.32 12.8703 1153.79 25.6997 1148.86 37.6697C1143.93 49.6397 1136.69 60.5159 1127.55 69.6774C1118.4 78.839 1107.54 86.1063 1095.58 91.0646C1083.63 96.0229 1070.8 98.575 1057.85 98.5752L1057.63 -0.0843841L1156.29 -0.0858379Z" fill="#BEE4E9"/>
<rect width="98.6598" height="98.6598" transform="matrix(0.00218679 0.999998 -1 1.47349e-05 1057.63 -0.0830078)" fill="#EDE6D8"/>
<rect width="49.3299" height="98.6598" transform="matrix(0.00218679 0.999998 -1 1.47349e-05 1057.63 -0.0830078)" fill="#1C8999"/>
<rect width="49.2678" height="98.6598" transform="matrix(0.00218679 0.999998 -1 1.47349e-05 1057.63 -0.0205078)" fill="#1C8999"/>
<rect width="198.005" height="198.005" transform="matrix(-0.999975 0.00709266 0.00709266 0.999975 1539.57 -2.84961)" fill="#0B434B"/>
<path d="M1341.58 -1.44344C1367.58 -1.62787 1393.36 3.36945 1417.45 13.2632C1441.55 23.1569 1463.48 37.7532 1482 56.2189C1500.52 74.6845 1515.26 96.6577 1525.38 120.884C1535.5 145.11 1540.81 171.115 1541 197.414L1343 198.818L1341.58 -1.44344Z" fill="#EDE6D8"/>
<path d="M1342.27 97.5543C1355.27 97.462 1368.17 99.9552 1380.21 104.891C1392.26 109.827 1403.23 117.11 1412.48 126.323C1421.74 135.536 1429.11 146.499 1434.18 158.586C1439.24 170.673 1441.89 183.648 1441.98 196.77L1342.98 197.472L1342.27 97.5543Z" fill="white"/>
</g>
<defs>
<clipPath id="clip0_1411_2372">
<rect width="2706" height="197" fill="white" transform="translate(-1747)"/>
</clipPath>
<clipPath id="clip1_1411_2372">
<rect width="2706" height="197" fill="white" transform="translate(959)"/>
</clipPath>
</defs>
</svg>
