<svg width="375" height="84" viewBox="0 0 375 84" fill="none" xmlns="http://www.w3.org/2000/svg">
<g clip-path="url(#clip0_1411_5288)">
<rect width="1153.83" height="84" transform="translate(-84)" fill="white"/>
<path d="M331.312 85.7051L416.35 84.5783L415.738 -1.69821L331.312 -1.09938L331.312 85.7051Z" fill="#0B434B"/>
<path d="M416.344 84.0166C405.257 84.0952 394.263 81.956 383.989 77.721C373.716 73.486 364.364 67.2383 356.467 59.3344C348.571 51.4305 342.286 42.0254 337.969 31.6559C333.652 21.2865 331.39 10.1558 331.31 -1.10059L415.736 -1.6994L416.344 84.0166Z" fill="#EDE6D8"/>
<path d="M416.042 41.1414C410.498 41.1807 405.001 40.1115 399.864 37.9949C394.727 35.8783 390.051 32.7558 386.103 28.8055C382.155 24.8552 379.012 20.1546 376.854 14.972C374.696 9.78946 373.564 4.22644 373.524 -1.39941L415.738 -1.69882L416.042 41.1414Z" fill="#1C8999"/>
<rect width="43.1175" height="42.0682" transform="matrix(-0.00213198 0.999998 -1 6.5002e-05 289.47 40.9287)" fill="#BEE4E9"/>
<path d="M247.402 40.9314L247.31 84.1654L289.47 40.9287L247.402 40.9314Z" fill="#BEE4E9"/>
<rect width="43.5662" height="42.0682" transform="matrix(0.00213198 -0.999998 1 -6.5002e-05 289.377 84.5293)" fill="#EDE6D8"/>
<path d="M310.458 62.7445C322.075 62.7438 331.513 52.9906 331.538 40.9601L289.47 40.9629C289.445 52.9933 298.841 62.7453 310.458 62.7445Z" fill="#0C434B"/>
<path d="M310.458 62.7445C322.075 62.7438 331.471 72.4958 331.446 84.5262L289.377 84.5289C289.403 72.4985 298.841 62.7453 310.458 62.7445Z" fill="#EDE6D8"/>
<rect width="42.0681" height="42.0681" transform="matrix(-0.00213198 0.999998 1 -6.5002e-05 247.492 -1.14941)" fill="#1C8999"/>
<path d="M247.492 -1.15028C247.48 4.37417 248.557 9.84446 250.66 14.9483C252.763 20.0521 255.852 24.6894 259.75 28.5955C263.648 32.5017 268.279 35.6001 273.379 37.7138C278.478 39.8276 283.946 40.9154 289.471 40.915L289.56 -1.15302L247.492 -1.15028Z" fill="white"/>
<rect width="42.0681" height="42.0681" transform="matrix(-0.00213198 0.999998 1 -6.5002e-05 289.56 -1.15137)" fill="#EDE6D8"/>
<rect width="21.0341" height="42.0681" transform="matrix(-0.00213198 0.999998 1 -6.5002e-05 289.56 -1.15137)" fill="#1C8999"/>
<rect width="21.0341" height="42.0681" transform="matrix(-0.00213198 0.999998 1 -6.5002e-05 289.56 -1.15137)" fill="#1C8999"/>
<rect width="43.3302" height="42.0681" transform="matrix(0.00922457 -0.999957 0.999975 0.00702766 42.4738 42.1123)" fill="#1C8999"/>
<path d="M84.5409 42.4079L84.929 0.341586L42.4738 42.1123L84.5409 42.4079Z" fill="#1C8999"/>
<rect width="42.0681" height="42.6177" transform="matrix(-0.00219698 0.999998 -1 0 42.7145 -0.101562)" fill="#EDE6D8"/>
<path d="M21.4616 20.9316C9.75047 20.9316 0.236024 30.3489 0.210502 41.9657H42.6203C42.6458 30.3489 33.1727 20.9316 21.4616 20.9316Z" fill="#0C434B"/>
<path d="M21.3739 20.9316C9.61431 20.9316 0.101988 11.5144 0.12751 -0.102383H42.7127C42.6871 11.5144 33.1334 20.9316 21.3739 20.9316Z" fill="#EDE6D8"/>
<rect width="42.0681" height="42.0681" transform="matrix(0.00922457 -0.999957 -0.999975 -0.00702766 84.1528 84.4766)" fill="#1C8999"/>
<path d="M84.1521 84.4763C84.2031 78.952 83.1654 73.4742 81.0984 68.3557C79.0315 63.2371 75.9756 58.5779 72.1053 54.6443C68.2351 50.7106 63.6262 47.5794 58.5419 45.4295C53.4576 43.2796 47.9974 42.1531 42.4731 42.1143L42.085 84.1806L84.1521 84.4763Z" fill="#BEE4E9"/>
<rect width="42.3797" height="42.3702" transform="matrix(0.00219698 -0.999998 -1 0 42.5187 84.3457)" fill="#EDE6D8"/>
<rect width="21.1898" height="42.0681" transform="matrix(0.00219698 -0.999998 -1 0 42.2166 84.3457)" fill="#1C8999"/>
<path d="M42.4682 84.0871L42.4991 63.1559H0.194976L0.148422 84.3457L42.4682 84.0871Z" fill="#1C8999"/>
<rect width="42.0681" height="42.0681" transform="matrix(0.00218679 0.999998 1 -1.47349e-05 -41.851 42.0469)" fill="#1C8999"/>
<path d="M0.216806 41.931L0.309053 84.1146L-41.8513 41.9316L0.216806 41.931Z" fill="#1C8999"/>
<rect width="42.0681" height="42.0681" transform="matrix(0.00218679 0.999998 -1 1.47349e-05 0.121368 -0.0371094)" fill="#1C8999"/>
<path d="M0.12353 -0.0383932C0.135611 5.48606 -0.94055 10.9564 -3.04351 16.0604C-5.14647 21.1644 -8.23505 25.802 -12.1329 29.7084C-16.0307 33.6148 -20.6615 36.7136 -25.7608 38.8278C-30.8602 40.942 -36.3282 42.0302 -41.8526 42.0303L-41.9446 -0.0377733L0.12353 -0.0383932Z" fill="#BEE4E9"/>
<rect width="84.4264" height="85.2792" transform="matrix(1 0 0 -1 163.31 83.999)" fill="#0B434B"/>
<path d="M247.739 83.8398C236.651 83.8398 225.672 81.6345 215.429 77.3498C205.186 73.0651 195.878 66.7849 188.039 58.8678C180.199 50.9507 173.98 41.5517 169.737 31.2076C165.494 20.8634 163.31 9.77654 163.31 -1.41992L247.739 -1.41992V83.8398Z" fill="#BEE4E9"/>
<path d="M247.812 40.8666C242.269 40.8666 236.779 39.7747 231.658 37.6532C226.536 35.5318 221.882 32.4223 217.962 28.5023C214.042 24.5824 210.933 19.9287 208.811 14.807C206.69 9.68537 205.598 4.196 205.598 -1.34766L247.812 -1.34765V40.8666Z" fill="#1C8999"/>
<rect width="84.4285" height="84.4285" transform="matrix(-0.999975 0.00709266 0.00709266 0.999975 163.552 -1.21484)" fill="#0B434B"/>
<path d="M79.1286 -0.615277C90.2156 -0.693916 101.21 1.43692 111.483 5.65556C121.757 9.8742 131.108 16.098 139.004 23.9717C146.9 31.8454 153.186 41.2147 157.502 51.5447C161.819 61.8747 164.081 72.9631 164.161 84.1768L79.7342 84.7756L79.1286 -0.615277Z" fill="#EDE6D8"/>
<path d="M79.4263 41.5974C84.9698 41.558 90.4668 42.6211 95.6035 44.7258C100.74 46.8306 105.416 49.9358 109.364 53.8642C113.312 57.7926 116.455 62.4672 118.613 67.6211C120.771 72.7751 121.902 78.3075 121.942 83.9023L79.7285 84.2018L79.4263 41.5974Z" fill="white"/>
</g>
<defs>
<clipPath id="clip0_1411_5288">
<rect width="1153.83" height="84" fill="white" transform="translate(-84)"/>
</clipPath>
</defs>
</svg>
