<svg width="249" height="63" viewBox="0 0 249 63" fill="none" xmlns="http://www.w3.org/2000/svg">
<g clip-path="url(#clip0_1411_28)">
<path d="M12.3359 17.2868H56.1608V11.9673H17.6555V5.31952H56.1608V0H12.3359V17.2868Z" fill="white"/>
<path d="M50.8373 24.141V34.0335C50.8373 40.0694 48.4396 45.8582 44.1715 50.1262C39.9035 54.3942 34.1148 56.792 28.0788 56.792C22.0429 56.792 16.2542 54.3942 11.9861 50.1262C7.7181 45.8582 5.32033 40.0694 5.32033 34.0335V0H0V34.0335C0 41.4804 2.95825 48.6222 8.22398 53.888C13.4897 59.1537 20.6316 62.1119 28.0784 62.1119C35.5253 62.1119 42.6671 59.1537 47.9329 53.888C53.1986 48.6222 56.1568 41.4804 56.1568 34.0335V24.141H50.8373Z" fill="white"/>
<path d="M38.5089 33.6072C38.4846 36.3566 37.3753 38.985 35.4226 40.9205C33.4699 42.856 30.8318 43.9419 28.0824 43.9419C25.333 43.9419 22.6948 42.856 20.7421 40.9205C18.7894 38.985 17.6802 36.3566 17.6559 33.6072V24.1406H12.3363V33.6072C12.3214 35.6846 12.7176 37.7443 13.5022 39.6679C14.2869 41.5914 15.4443 43.3407 16.908 44.8149C18.3716 46.2891 20.1125 47.4591 22.0303 48.2575C23.9481 49.056 26.005 49.467 28.0824 49.467C30.1598 49.467 32.2166 49.056 34.1344 48.2575C36.0523 47.4591 37.7931 46.2891 39.2568 44.8149C40.7204 43.3407 41.8779 41.5914 42.6625 39.6679C43.4471 37.7443 43.8434 35.6846 43.8284 33.6072V24.1406H38.5089V33.6072Z" fill="white"/>
<path d="M27.9787 34.6516L30.8245 36.4449V24.1406H25.332V36.4449L27.9787 34.6516Z" fill="white"/>
<path d="M71.5859 18.599V2.71875H74.9106V15.6667H82.8026V18.599H71.5859Z" fill="white"/>
<path d="M90.8075 15.0431H93.9911C93.7129 16.2146 93.0214 17.2465 92.0436 17.9492C90.9948 18.6713 89.7427 19.0394 88.47 19.0001C87.7021 19.0362 86.9356 18.9017 86.2259 18.6061C85.5161 18.3105 84.8807 17.8613 84.3653 17.2908C83.2993 15.9911 82.7588 14.3392 82.8503 12.6607C82.7572 11.0137 83.2902 9.3924 84.3425 8.12198C84.8605 7.56389 85.4944 7.12603 86.1998 6.83919C86.9051 6.55235 87.6647 6.42349 88.4252 6.46167C89.2074 6.41304 89.991 6.53379 90.7223 6.81568C91.4537 7.09757 92.1156 7.53396 92.6628 8.09505C93.7327 9.40024 94.2667 11.0631 94.1567 12.7472C94.1567 12.9707 94.1543 13.1372 94.151 13.2481C94.1475 13.3549 94.1382 13.4614 94.1233 13.5671H86.1546C86.1391 14.3185 86.3809 15.0526 86.8399 15.6476C87.0676 15.8883 87.3455 16.0758 87.6539 16.1968C87.9624 16.3178 88.2936 16.3693 88.6242 16.3477C89.0946 16.367 89.5613 16.2572 89.9737 16.0303C90.3459 15.7941 90.6369 15.4496 90.8075 15.0431ZM86.1546 11.5071H90.8524C90.8712 10.846 90.6418 10.2019 90.2095 9.70151C89.9814 9.48539 89.7111 9.3188 89.4155 9.21223C89.12 9.10565 88.8056 9.0614 88.4921 9.08226C88.1901 9.06586 87.888 9.11301 87.6054 9.22066C87.3228 9.32831 87.0659 9.49407 86.8513 9.70723C86.4173 10.2082 86.171 10.8445 86.1546 11.5071Z" fill="white"/>
<path d="M102.203 17.1459C101.812 17.7462 101.266 18.2287 100.622 18.5419C99.9119 18.8748 99.1349 19.0393 98.3511 19.0224C97.8625 19.0536 97.3727 18.9835 96.9124 18.8164C96.4522 18.6493 96.0315 18.3889 95.6766 18.0515C95.0108 17.292 94.6734 16.2994 94.7384 15.2914C94.7071 14.8268 94.7745 14.3609 94.9362 13.9243C95.0979 13.4876 95.3503 13.0902 95.6766 12.7581C96.5718 12.0653 97.65 11.6492 98.7786 11.5612C99.1074 11.5106 99.5382 11.4535 100.073 11.3891C101.426 11.2161 102.103 10.8315 102.105 10.2354C102.123 10.0413 102.091 9.84581 102.012 9.6675C101.933 9.48918 101.81 9.33392 101.655 9.21638C101.192 8.97413 100.67 8.86751 100.149 8.9088C99.6282 8.87597 99.1101 9.00814 98.6685 9.28655C98.4996 9.4093 98.3639 9.57219 98.2737 9.7605C98.1836 9.94881 98.1417 10.1566 98.152 10.3651V10.5373H95.1675V10.3219C95.1436 9.7812 95.2487 9.24258 95.4739 8.75047C95.6992 8.25836 96.0383 7.82688 96.4631 7.49162C97.5032 6.75071 98.7652 6.38742 100.04 6.46198C101.374 6.38225 102.703 6.6773 103.878 7.31376C104.3 7.56648 104.646 7.92788 104.88 8.36017C105.115 8.79247 105.229 9.27978 105.21 9.77118V16.4345C105.192 16.8059 105.244 17.1774 105.364 17.5294C105.464 17.7675 105.648 17.9608 105.881 18.0727V18.6014H102.554C102.441 18.3908 102.356 18.1661 102.302 17.9332C102.242 17.6749 102.209 17.411 102.203 17.1459ZM102.147 12.834C101.572 13.0891 100.971 13.2804 100.354 13.4043C99.6761 13.5487 99.3261 13.6243 99.304 13.6311C98.8665 13.7232 98.4605 13.9276 98.1259 14.2242C97.8894 14.4943 97.7687 14.8466 97.7898 15.2049C97.781 15.3976 97.8149 15.5898 97.8891 15.7678C97.9633 15.9458 98.0759 16.1052 98.2189 16.2346C98.5409 16.5029 98.9524 16.6396 99.3709 16.6172C99.7409 16.6383 100.111 16.5859 100.461 16.4629C100.81 16.34 101.132 16.1489 101.407 15.9009C101.659 15.6437 101.855 15.3371 101.983 15.0003C102.11 14.6635 102.166 14.304 102.147 13.9444V12.834Z" fill="white"/>
<path d="M107.102 18.601V6.88257H110.066V8.88718C110.397 8.18406 110.899 7.5745 111.524 7.11347C112.114 6.72686 112.808 6.52959 113.513 6.54806C113.635 6.54806 113.734 6.54969 113.802 6.55377C113.871 6.55785 113.929 6.56275 113.974 6.56928L113.985 9.74957H112.92C112.564 9.72279 112.206 9.76825 111.868 9.88323C111.531 9.9982 111.22 10.1803 110.954 10.4186C110.719 10.6894 110.54 11.004 110.427 11.3444C110.314 11.6849 110.269 12.0443 110.296 12.402V18.601H107.102Z" fill="white"/>
<path d="M114.824 18.6004V6.88192H117.954V8.27299C118.372 7.72774 118.913 7.28977 119.534 6.99533C120.171 6.7046 120.864 6.55886 121.564 6.56862C122.1 6.52681 122.639 6.59468 123.148 6.76806C123.656 6.94145 124.124 7.21671 124.523 7.57705C125.238 8.41903 125.592 9.50975 125.506 10.6113V18.6004H122.312V11.5177C122.367 10.8861 122.215 10.2537 121.879 9.71628C121.7 9.52456 121.48 9.37631 121.236 9.28296C120.991 9.1896 120.729 9.15362 120.468 9.1778C120.14 9.16052 119.812 9.21045 119.505 9.32452C119.197 9.43859 118.916 9.61439 118.679 9.84111C118.452 10.0818 118.277 10.3659 118.164 10.6762C118.05 10.9866 118.001 11.3167 118.019 11.6466V18.6004H114.824Z" fill="white"/>
<path d="M134.712 15.0429H137.895C137.616 16.2146 136.924 17.2465 135.946 17.9491C134.897 18.6711 133.645 19.0393 132.372 18.9999C131.604 19.0356 130.838 18.9009 130.128 18.6054C129.419 18.3098 128.783 17.8609 128.267 17.2907C127.202 15.9906 126.662 14.3389 126.752 12.6605C126.66 11.0137 127.193 9.39282 128.245 8.12182C128.763 7.56364 129.397 7.12575 130.103 6.83892C130.809 6.55208 131.569 6.42327 132.33 6.46151C133.112 6.41327 133.895 6.53421 134.626 6.81608C135.357 7.09795 136.019 7.53413 136.567 8.0949C137.635 9.40068 138.168 11.0633 138.059 12.747C138.059 12.9706 138.057 13.137 138.053 13.248C138.05 13.3547 138.04 13.4612 138.025 13.567H130.056C130.043 14.3181 130.284 15.0515 130.742 15.6475C130.97 15.8879 131.248 16.0752 131.556 16.1962C131.864 16.3172 132.196 16.3688 132.526 16.3475C132.997 16.3668 133.464 16.2571 133.877 16.0301C134.249 15.7933 134.54 15.449 134.712 15.0429ZM130.056 11.5069H134.754C134.773 10.8462 134.544 10.2024 134.113 9.70136C133.885 9.48504 133.614 9.31833 133.318 9.21176C133.022 9.10518 132.708 9.06104 132.394 9.08211C132.092 9.06586 131.79 9.11308 131.507 9.22072C131.225 9.32837 130.968 9.49404 130.753 9.70707C130.319 10.208 130.073 10.8443 130.056 11.5069Z" fill="white"/>
<path d="M139.262 18.601V6.88257H142.226V8.88718C142.558 8.18427 143.06 7.57484 143.686 7.11347C144.275 6.72687 144.969 6.52959 145.673 6.54806C145.798 6.54806 145.894 6.5497 145.965 6.55377C146.021 6.5561 146.078 6.56127 146.134 6.56928L146.145 9.74957H145.08C144.725 9.72263 144.367 9.76803 144.03 9.88301C143.692 9.998 143.381 10.1802 143.116 10.4186C142.88 10.689 142.701 11.0036 142.587 11.3441C142.474 11.6846 142.429 12.0441 142.456 12.402V18.601H139.262Z" fill="white"/>
<path d="M146.32 14.7865H149.503C149.5 15.0448 149.558 15.3002 149.672 15.5317C149.787 15.7632 149.955 15.9642 150.162 16.118C150.719 16.4466 151.362 16.5985 152.006 16.5537C152.506 16.5817 153.005 16.4758 153.45 16.2469C153.607 16.1633 153.737 16.0381 153.827 15.885C153.917 15.732 153.963 15.5571 153.96 15.3796C153.96 14.8466 153.323 14.4476 152.049 14.1827C151.531 14.075 151.116 13.9812 150.809 13.9021C149.643 13.6872 148.538 13.216 147.576 12.5224C147.275 12.2524 147.038 11.9189 146.881 11.546C146.724 11.1731 146.653 10.7701 146.671 10.366C146.649 9.81986 146.758 9.27645 146.988 8.78065C147.218 8.28485 147.563 7.85088 147.994 7.51455C149.033 6.76441 150.298 6.39321 151.577 6.46288C152.912 6.38702 154.235 6.75508 155.338 7.50966C155.789 7.85633 156.155 8.3018 156.407 8.81183C156.659 9.32186 156.79 9.88286 156.791 10.4517H153.686C153.685 10.2282 153.633 10.0079 153.533 9.80797C153.433 9.60803 153.288 9.43382 153.11 9.29888C152.665 9.00156 152.134 8.85776 151.599 8.88931C151.132 8.85875 150.665 8.9516 150.245 9.15854C150.103 9.23912 149.987 9.35731 149.908 9.50002C149.83 9.64273 149.792 9.80439 149.8 9.96708C149.8 10.4346 150.594 10.848 152.181 11.2072C152.547 11.2864 152.837 11.3508 153.049 11.4006C154.221 11.5884 155.334 12.0422 156.303 12.7272C156.6 13.0056 156.832 13.3459 156.983 13.7241C157.134 14.1022 157.2 14.5089 157.176 14.9154C157.209 15.5014 157.095 16.0863 156.845 16.6172C156.594 17.1481 156.216 17.6083 155.743 17.9562C154.498 18.7319 153.041 19.0975 151.577 19.0013C150.203 19.0824 148.842 18.6988 147.713 17.9121C147.258 17.5606 146.894 17.105 146.651 16.5835C146.409 16.062 146.295 15.49 146.32 14.9154V14.7865Z" fill="white"/>
<path d="M71.4853 25.4395H74.8451V35.4013C74.7636 36.3586 75.0288 37.3132 75.5925 38.0913C75.9028 38.395 76.2753 38.6279 76.6844 38.7738C77.0934 38.9198 77.5292 38.9753 77.9618 38.9365C78.3985 38.976 78.8386 38.9214 79.2524 38.7763C79.6662 38.6312 80.044 38.399 80.3604 38.0953C80.9295 37.3182 81.1971 36.3609 81.1135 35.4013V25.4395H84.4398V35.757C84.4935 36.5794 84.3731 37.4039 84.0864 38.1766C83.7998 38.9492 83.3533 39.6527 82.7763 40.2411C81.4414 41.3631 79.7235 41.9237 77.9838 41.8051C76.2353 41.9239 74.5081 41.366 73.1595 40.2468C72.5788 39.6594 72.1292 38.9555 71.8406 38.1816C71.552 37.4076 71.4309 36.5813 71.4853 35.757V25.4395Z" fill="white"/>
<path d="M86.5234 41.3621V29.6436H89.6531V31.0347C90.0707 30.4895 90.6122 30.0515 91.2327 29.757C91.8697 29.4662 92.5633 29.3205 93.2634 29.3303C93.7992 29.2885 94.3378 29.3564 94.8465 29.5298C95.3551 29.7032 95.8231 29.9784 96.2218 30.3388C96.9372 31.1807 97.2906 32.2715 97.2049 33.373V41.3621H94.0107V34.2791C94.066 33.6475 93.9139 33.0151 93.5775 32.4777C93.3993 32.286 93.1794 32.1377 92.9348 32.0443C92.6902 31.951 92.4275 31.915 92.1669 31.9392C91.8392 31.9219 91.5114 31.9718 91.2037 32.0859C90.896 32.2 90.6149 32.3758 90.3776 32.6025C90.1513 32.8432 89.9761 33.1273 89.8626 33.4376C89.7492 33.748 89.6998 34.0781 89.7176 34.408V41.3618L86.5234 41.3621Z" fill="white"/>
<path d="M99.1172 25.4824H102.311V28.34H99.1172V25.4824ZM99.1172 29.6442H102.311V41.3627H99.1172V29.6442Z" fill="white"/>
<path d="M107.21 41.363L102.918 29.6445H106.452L108.902 38.053L111.371 29.6445H114.74L110.47 41.363H107.21Z" fill="white"/>
<path d="M122.634 37.8027H125.817C125.538 38.9744 124.846 40.0062 123.868 40.7088C122.819 41.4309 121.567 41.799 120.294 41.7597C119.526 41.7954 118.76 41.6607 118.05 41.3651C117.34 41.0696 116.705 40.6206 116.189 40.0504C115.124 38.7503 114.584 37.0987 114.674 35.4203C114.582 33.7735 115.115 32.1526 116.166 30.8816C116.685 30.3234 117.319 29.8855 118.025 29.5987C118.731 29.3119 119.491 29.183 120.252 29.2213C121.034 29.173 121.817 29.294 122.548 29.5758C123.279 29.8577 123.941 30.2939 124.488 30.8547C125.557 32.1604 126.09 33.8231 125.981 35.5068C125.981 35.7303 125.978 35.8968 125.975 36.0077C125.971 36.1145 125.962 36.221 125.947 36.3268H117.979C117.965 37.0778 118.207 37.8113 118.664 38.4072C118.892 38.6476 119.17 38.835 119.478 38.9559C119.787 39.0769 120.118 39.1286 120.448 39.1073C120.919 39.1266 121.386 39.0168 121.799 38.7899C122.171 38.553 122.462 38.2087 122.634 37.8027ZM117.979 34.2667H122.677C122.695 33.606 122.466 32.9621 122.035 32.4611C121.807 32.2448 121.536 32.0781 121.241 31.9715C120.945 31.8649 120.63 31.8208 120.316 31.8419C120.014 31.8256 119.712 31.8728 119.43 31.9805C119.147 32.0881 118.89 32.2538 118.675 32.4668C118.241 32.9678 117.995 33.6041 117.979 34.2667Z" fill="white"/>
<path d="M127.191 41.3627V29.6443H130.155V31.6489C130.488 30.946 130.99 30.3366 131.616 29.8752C132.205 29.4886 132.898 29.2913 133.603 29.3098C133.727 29.3098 133.824 29.3114 133.895 29.3155C133.951 29.3178 134.008 29.323 134.064 29.331L134.075 32.5113H133.009C132.654 32.4843 132.297 32.5297 131.959 32.6447C131.621 32.7597 131.311 32.9419 131.046 33.1803C130.81 33.4507 130.63 33.7653 130.517 34.1058C130.403 34.4463 130.359 34.8059 130.386 35.1637V41.3627H127.191Z" fill="white"/>
<path d="M134.249 37.5462H137.433C137.43 37.8045 137.487 38.06 137.602 38.2915C137.717 38.523 137.885 38.7239 138.092 38.8777C138.649 39.2064 139.292 39.3583 139.936 39.3134C140.436 39.3414 140.935 39.2355 141.38 39.0066C141.537 38.9231 141.667 38.7978 141.757 38.6448C141.847 38.4917 141.893 38.3168 141.889 38.1394C141.889 37.6063 141.252 37.2074 139.979 36.9425C139.46 36.8348 139.046 36.741 138.739 36.6618C137.573 36.447 136.468 35.9757 135.506 35.2822C135.205 35.0121 134.967 34.6786 134.811 34.3057C134.654 33.9328 134.582 33.5298 134.6 33.1258C134.579 32.5796 134.688 32.0362 134.918 31.5404C135.148 31.0446 135.493 30.6106 135.924 30.2743C136.963 29.5242 138.227 29.153 139.507 29.2226C140.842 29.1468 142.164 29.5148 143.268 30.2694C143.719 30.6161 144.085 31.0616 144.337 31.5716C144.588 32.0816 144.72 32.6426 144.721 33.2115H141.616C141.615 32.988 141.563 32.7677 141.463 32.5677C141.363 32.3678 141.218 32.1936 141.04 32.0586C140.594 31.7613 140.064 31.6175 139.529 31.6491C139.062 31.6185 138.595 31.7114 138.175 31.9183C138.033 31.9989 137.917 32.1171 137.838 32.2598C137.76 32.4025 137.722 32.5642 137.73 32.7268C137.73 33.1943 138.523 33.6077 140.111 33.967C140.477 34.0461 140.766 34.1106 140.979 34.1603C142.15 34.3481 143.263 34.8019 144.232 35.487C144.53 35.7653 144.762 36.1057 144.913 36.4838C145.064 36.862 145.129 37.2687 145.105 37.6751C145.138 38.2611 145.024 38.846 144.774 39.377C144.524 39.9079 144.145 40.3681 143.673 40.7159C142.428 41.4917 140.971 41.8572 139.507 41.7611C138.133 41.8422 136.772 41.4585 135.643 40.6719C135.188 40.3204 134.824 39.8647 134.581 39.3433C134.339 38.8218 134.225 38.2497 134.249 37.6751L134.249 37.5462Z" fill="white"/>
<path d="M146.355 25.4824H149.55V28.34H146.355V25.4824ZM146.355 29.6442H149.55V41.3627H146.355V29.6442Z" fill="white"/>
<path d="M156.805 41.4487C156.512 41.4552 156.163 41.4677 155.756 41.4862C155.351 41.5041 155.093 41.5131 154.983 41.5131C154.092 41.6132 153.196 41.3725 152.475 40.8392C152.025 40.3905 151.8 39.5047 151.8 38.1819V31.8433H150.219V29.6437H151.8V26.4414H154.961V29.6437H156.805V31.8433H154.961V38.3328C154.945 38.4435 154.956 38.5565 154.992 38.6623C155.028 38.7682 155.089 38.8639 155.17 38.9415C155.437 39.0652 155.733 39.1156 156.026 39.0875H156.805V41.4487Z" fill="white"/>
<path d="M158.226 46.0641V43.53C158.328 43.5455 158.434 43.5552 158.543 43.5626C158.653 43.5699 158.796 43.574 158.973 43.574C159.483 43.6123 159.989 43.4564 160.389 43.1375C160.555 42.9647 160.684 42.7586 160.765 42.5328C160.846 42.307 160.879 42.0666 160.861 41.8272C160.86 41.7727 160.852 41.7184 160.838 41.6657C160.827 41.6111 160.812 41.5571 160.794 41.5041L156.492 29.6445H160.005L162.518 38.0962L164.966 29.6445H168.324L163.418 43.4663C163.19 44.2963 162.711 45.0357 162.047 45.5835C161.297 46.0122 160.437 46.2095 159.575 46.1505C159.378 46.1505 159.167 46.1432 158.94 46.1285C158.713 46.1138 158.475 46.0926 158.226 46.0641Z" fill="white"/>
<path d="M188.765 35.907C188.736 36.7336 188.532 37.5446 188.166 38.2862C187.8 39.0279 187.28 39.6833 186.641 40.2091C185.198 41.3224 183.407 41.8876 181.586 41.8041C180.552 41.8639 179.517 41.6983 178.553 41.3186C177.59 40.9389 176.72 40.3544 176.004 39.6053C174.675 38.1392 174.011 36.0835 174.012 33.4381C174.012 30.7359 174.689 28.6661 176.043 27.2285C177.396 25.7909 179.342 25.0721 181.882 25.0721C183.636 24.9743 185.368 25.4994 186.773 26.5546C187.379 27.0734 187.868 27.7151 188.208 28.437C188.547 29.1589 188.73 29.9447 188.743 30.7425H185.461C185.373 29.9371 184.97 29.1991 184.341 28.6889C183.623 28.1848 182.757 27.9363 181.882 27.9832C181.256 27.942 180.629 28.0461 180.05 28.2874C179.471 28.5287 178.956 28.9007 178.545 29.3742C177.706 30.5565 177.303 31.9923 177.403 33.4381C177.314 34.8621 177.715 36.2739 178.539 37.4384C179.257 38.2117 180.227 38.7026 181.276 38.8222C182.324 38.9418 183.38 38.6821 184.253 38.0902C184.923 37.5393 185.367 36.7629 185.504 35.907H188.765Z" fill="white"/>
<path d="M189.639 35.487C189.592 34.6529 189.71 33.8177 189.987 33.0294C190.264 32.2412 190.694 31.5156 191.252 30.8944C192.477 29.8169 194.053 29.2227 195.685 29.2227C197.316 29.2227 198.892 29.8169 200.117 30.8944C200.677 31.5149 201.108 32.2403 201.386 33.0286C201.664 33.8169 201.782 34.6525 201.735 35.487C201.783 36.3231 201.664 37.1604 201.387 37.9505C201.109 38.7406 200.677 39.4679 200.117 40.0901C198.891 41.1671 197.316 41.7611 195.685 41.7611C194.053 41.7611 192.478 41.1671 191.252 40.0901C190.693 39.4671 190.263 38.7397 189.986 37.9497C189.709 37.1597 189.591 36.3227 189.639 35.487ZM192.878 35.487C192.818 36.441 193.074 37.3884 193.607 38.1818C193.852 38.4959 194.169 38.7461 194.531 38.9112C194.894 39.0762 195.291 39.1513 195.688 39.1298C196.082 39.1495 196.475 39.0735 196.833 38.9084C197.191 38.7433 197.504 38.494 197.745 38.1818C198.222 37.3669 198.474 36.4398 198.475 35.4955C198.476 34.5511 198.226 33.6235 197.751 32.8076C197.509 32.4956 197.195 32.2469 196.835 32.0827C196.476 31.9184 196.083 31.8436 195.688 31.8645C195.291 31.8429 194.895 31.9174 194.532 32.0815C194.17 32.2457 193.853 32.4948 193.607 32.8076C193.074 33.5954 192.818 34.5378 192.878 35.487Z" fill="white"/>
<path d="M206.319 25.4824H203.125V41.3627H206.319V25.4824Z" fill="white"/>
<path d="M211.597 25.4824H208.402V41.3627H211.597V25.4824Z" fill="white"/>
<path d="M220.933 37.8028H224.116C223.838 38.9744 223.146 40.0063 222.169 40.709C221.12 41.431 219.868 41.7992 218.595 41.7598C217.827 41.796 217.061 41.6614 216.351 41.3659C215.641 41.0703 215.006 40.6211 214.49 40.0506C213.424 38.7509 212.884 37.099 212.975 35.4205C212.882 33.7735 213.415 32.1522 214.468 30.8817C214.985 30.3237 215.619 29.8858 216.325 29.599C217.03 29.3121 217.79 29.1833 218.55 29.2214C219.332 29.1728 220.116 29.2936 220.847 29.5754C221.579 29.8573 222.241 30.2937 222.788 30.8548C223.858 32.16 224.392 33.8229 224.282 35.507C224.282 35.7305 224.28 35.8969 224.276 36.0079C224.272 36.1147 224.263 36.2212 224.248 36.3269H216.28C216.264 37.0783 216.506 37.8123 216.965 38.4074C217.193 38.6481 217.471 38.8356 217.779 38.9566C218.087 39.0775 218.419 39.1291 218.749 39.1074C219.22 39.1267 219.686 39.017 220.099 38.79C220.471 38.5538 220.762 38.2093 220.933 37.8028ZM216.28 34.2668H220.977C220.996 33.6058 220.767 32.9617 220.334 32.4613C220.106 32.2452 219.836 32.0786 219.541 31.972C219.245 31.8654 218.931 31.8212 218.617 31.842C218.315 31.8256 218.013 31.8728 217.73 31.9804C217.448 32.0881 217.191 32.2538 216.976 32.467C216.542 32.968 216.296 33.6042 216.28 34.2668Z" fill="white"/>
<path d="M225.209 42.4932L228.699 42.4826C228.74 42.6647 228.817 42.8367 228.925 42.9884C229.034 43.1402 229.172 43.2687 229.331 43.3662C229.723 43.5784 230.165 43.6792 230.61 43.6575C230.981 43.6972 231.356 43.6628 231.714 43.5564C232.072 43.4499 232.405 43.2735 232.694 43.0374C233.165 42.372 233.376 41.5574 233.287 40.7472V39.7013C232.982 40.2391 232.526 40.6757 231.975 40.9569C231.344 41.2467 230.655 41.3852 229.961 41.3616C229.26 41.3888 228.563 41.2569 227.92 40.9758C227.278 40.6947 226.707 40.2718 226.252 39.7388C225.275 38.5184 224.779 36.9824 224.858 35.4212C224.771 33.8005 225.254 32.2005 226.223 30.8988C226.664 30.3513 227.227 29.9145 227.866 29.6234C228.506 29.3323 229.205 29.1949 229.907 29.2221C230.62 29.2013 231.326 29.3568 231.964 29.675C232.549 29.9937 233.031 30.4726 233.354 31.0554V29.6431H236.384V40.5857C236.421 41.5363 236.303 42.4867 236.032 43.3988C235.798 44.0453 235.382 44.6107 234.835 45.0273C234.284 45.4245 233.659 45.7082 232.998 45.862C232.165 46.0632 231.311 46.1594 230.455 46.1483C229.132 46.2209 227.818 45.886 226.69 45.1889C226.248 44.8887 225.883 44.4879 225.625 44.0193C225.368 43.5506 225.225 43.0276 225.209 42.4932ZM228.095 35.3135C228.037 36.2094 228.275 37.0995 228.771 37.8476C229.01 38.1248 229.306 38.3473 229.638 38.4997C229.97 38.6522 230.332 38.7312 230.698 38.7312C231.063 38.7312 231.425 38.6522 231.757 38.4997C232.09 38.3473 232.385 38.1248 232.624 37.8476C233.115 37.0814 233.348 36.1777 233.287 35.2694C233.342 34.3879 233.101 33.5134 232.601 32.7851C232.37 32.4938 232.073 32.2621 231.734 32.1092C231.395 31.9564 231.025 31.8868 230.654 31.9064C230.29 31.8889 229.927 31.9615 229.598 32.1176C229.268 32.2737 228.983 32.5085 228.766 32.8014C228.276 33.5442 228.041 34.4256 228.095 35.3135Z" fill="white"/>
<path d="M245.647 37.8028H248.831C248.553 38.9744 247.861 40.0063 246.883 40.709C245.835 41.431 244.583 41.7992 243.31 41.7598C242.542 41.796 241.775 41.6614 241.066 41.3659C240.356 41.0703 239.721 40.6211 239.205 40.0506C238.139 38.7509 237.599 37.099 237.69 35.4205C237.597 33.7735 238.13 32.1522 239.182 30.8817C239.7 30.3237 240.334 29.8858 241.04 29.599C241.745 29.3121 242.505 29.1833 243.265 29.2214C244.047 29.1728 244.831 29.2936 245.562 29.5754C246.294 29.8573 246.955 30.2937 247.503 30.8548C248.573 32.16 249.106 33.8229 248.997 35.507C248.997 35.7305 248.995 35.8969 248.991 36.0079C248.987 36.1147 248.978 36.2212 248.963 36.3269H240.994C240.979 37.0783 241.221 37.8123 241.68 38.4074C241.907 38.6481 242.185 38.8356 242.494 38.9566C242.802 39.0775 243.133 39.1291 243.464 39.1074C243.934 39.1267 244.401 39.017 244.814 38.79C245.186 38.5538 245.477 38.2093 245.647 37.8028ZM240.994 34.2668H245.692C245.711 33.6058 245.482 32.9617 245.049 32.4613C244.821 32.2452 244.551 32.0786 244.255 31.972C243.96 31.8654 243.645 31.8212 243.332 31.842C243.03 31.8256 242.728 31.8728 242.445 31.9804C242.163 32.0881 241.906 32.2538 241.691 32.467C241.257 32.968 241.011 33.6042 240.994 34.2668Z" fill="white"/>
<path d="M70.7148 57.198V49.918H71.7314V56.2794H75.4241V57.198H70.7148Z" fill="white"/>
<path d="M79.7487 55.489H80.6446C80.5711 56.0305 80.2939 56.5236 79.8695 56.8678C79.4157 57.2149 78.8551 57.3929 78.2842 57.3712C77.9526 57.387 77.6217 57.3287 77.3154 57.2006C77.0092 57.0724 76.7353 56.8777 76.5138 56.6304C76.0552 56.0601 75.8241 55.3401 75.8652 54.6095C75.8193 53.8498 76.0474 53.0989 76.5081 52.4931C76.7269 52.2398 77.0006 52.0396 77.3084 51.9079C77.6161 51.7761 77.9499 51.7162 78.2842 51.7327C78.6169 51.7126 78.95 51.7649 79.2606 51.8859C79.5712 52.0069 79.8518 52.1937 80.0832 52.4335C80.5389 52.99 80.7666 53.6984 80.7205 54.4161C80.7205 54.5246 80.7188 54.6054 80.7188 54.6584C80.7172 54.7115 80.7115 54.7621 80.7058 54.8118H76.8148C76.7951 55.2796 76.9456 55.7387 77.2383 56.1042C77.5075 56.3636 77.8576 56.5228 78.23 56.555C78.6025 56.5872 78.9748 56.4906 79.2845 56.2812C79.5309 56.0828 79.6961 55.801 79.7487 55.489ZM76.8108 54.0702H79.7691C79.7934 53.6536 79.6564 53.2437 79.3865 52.9255C79.0928 52.6675 78.7157 52.5246 78.3248 52.5233C77.9339 52.5219 77.5557 52.6622 77.2603 52.9182C76.9805 53.2379 76.8215 53.6455 76.8108 54.0702Z" fill="white"/>
<path d="M85.0895 56.4896C84.8339 56.7613 84.5294 56.9825 84.192 57.1415C83.8754 57.2867 83.5311 57.3613 83.1828 57.3602C82.7152 57.3881 82.2546 57.237 81.8945 56.9375C81.7376 56.7875 81.6151 56.6054 81.5352 56.4036C81.4554 56.2018 81.4201 55.9851 81.4319 55.7684C81.4205 55.5579 81.4554 55.3476 81.534 55.1521C81.6127 54.9566 81.7332 54.7807 81.8872 54.6368C82.2855 54.325 82.7686 54.1405 83.2733 54.1073C83.4316 54.0909 83.6437 54.0681 83.913 54.0387C84.1985 54.0224 84.4816 53.9776 84.7582 53.9049C84.8439 53.8802 84.9174 53.8247 84.9646 53.7491C85.0087 53.6145 85.0258 53.4726 85.0152 53.3314C85.0223 53.2123 84.998 53.0935 84.9447 52.9869C84.8914 52.8802 84.8111 52.7894 84.7117 52.7235C84.434 52.5698 84.1179 52.4996 83.8012 52.5212C83.4669 52.4975 83.1341 52.5844 82.854 52.7684C82.7459 52.8556 82.6604 52.9676 82.6047 53.0948C82.549 53.2221 82.5248 53.3608 82.5341 53.4994H81.6775V53.4601C81.6673 53.2189 81.714 52.9787 81.8138 52.7589C81.9136 52.5391 82.0636 52.3458 82.2518 52.1947C82.7089 51.862 83.267 51.6979 83.8314 51.7304C84.3918 51.687 84.9512 51.8264 85.4256 52.1278C85.6026 52.2801 85.741 52.4722 85.8295 52.6883C85.918 52.9044 85.9541 53.1384 85.9347 53.3712V56.0203C85.9188 56.1709 85.9453 56.323 86.0114 56.4593C86.0457 56.4958 86.088 56.5239 86.1351 56.5411C86.1821 56.5584 86.2325 56.5645 86.2823 56.5588C86.3153 56.5584 86.3483 56.5559 86.381 56.5515C86.4202 56.5466 86.4667 56.5392 86.5205 56.5294V57.2156C86.425 57.2421 86.328 57.2631 86.2301 57.2784C86.1524 57.2889 86.0742 57.2943 85.9959 57.2947C85.7539 57.3129 85.5131 57.245 85.3163 57.103C85.2373 57.0287 85.1759 56.9377 85.1366 56.8366C85.0974 56.7355 85.0813 56.6269 85.0895 56.5188V56.4896ZM85.0038 54.503C84.6092 54.6707 84.1897 54.7724 83.762 54.804C83.554 54.8309 83.3982 54.8521 83.2945 54.8693C83.0345 54.8916 82.7871 54.9911 82.5839 55.1548C82.5079 55.235 82.4494 55.33 82.412 55.4339C82.3747 55.5379 82.3593 55.6484 82.3669 55.7586C82.3603 55.8723 82.3796 55.9861 82.4234 56.0912C82.4672 56.1964 82.5344 56.2902 82.6198 56.3656C82.8262 56.5204 83.0812 56.5959 83.3386 56.5785C83.7673 56.5968 84.1896 56.4697 84.5371 56.2179C84.6836 56.1128 84.8024 55.9738 84.8837 55.8129C84.9649 55.652 85.0061 55.4738 85.0038 55.2935V54.503Z" fill="white"/>
<path d="M87.3555 57.1967V51.9033H88.2309V52.8521C88.3464 52.5352 88.5503 52.2581 88.8183 52.0534C89.0855 51.8717 89.4035 51.7794 89.7264 51.7899C89.7933 51.7899 89.8423 51.7907 89.8716 51.7915C89.9024 51.7937 89.9329 51.7981 89.963 51.8045V52.7428C89.9385 52.7404 89.9124 52.7379 89.8831 52.7355C89.8512 52.7346 89.8064 52.7338 89.7468 52.7338C89.5459 52.7198 89.3442 52.7469 89.1541 52.8135C88.964 52.8802 88.7895 52.9849 88.6413 53.1214C88.5069 53.2755 88.4043 53.4547 88.3393 53.6486C88.2744 53.8425 88.2483 54.0474 88.2627 54.2514V57.1967H87.3555Z" fill="white"/>
<path d="M94.3656 57.1978V53.9409C94.4026 53.5637 94.3164 53.1847 94.12 52.8606C94.0118 52.751 93.8802 52.6672 93.7352 52.6154C93.5901 52.5635 93.4353 52.545 93.2821 52.5612C93.0671 52.5483 92.8517 52.5791 92.6489 52.6517C92.4462 52.7243 92.2602 52.8373 92.1023 52.9838C91.9557 53.1454 91.843 53.3347 91.7708 53.5405C91.6987 53.7464 91.6685 53.9646 91.6822 54.1824V57.1978H90.7773V51.9044H91.643V52.6754C91.8276 52.3888 92.0823 52.154 92.383 51.9934C92.6901 51.8396 93.0301 51.7632 93.3735 51.7706C93.7246 51.7604 94.0742 51.822 94.4007 51.9518C94.6659 52.061 94.8906 52.25 95.0436 52.4927C95.1317 52.6309 95.1936 52.7841 95.2263 52.9447C95.27 53.2165 95.288 53.4919 95.2802 53.7671V57.1978H94.3656Z" fill="white"/>
<path d="M97.8789 56.0957H96.8477V57.198H97.8789V56.0957Z" fill="white"/>
<path d="M101.566 57.198L104.318 49.918H105.43L108.193 57.198H107.101L106.316 55.0229H103.396L102.607 57.198H101.566ZM103.709 54.1736H106.019L104.872 50.9607L103.709 54.1736Z" fill="white"/>
<path d="M112.432 53.6644C112.429 53.5044 112.391 53.347 112.322 53.2026C112.253 53.0582 112.155 52.93 112.033 52.8265C111.749 52.6164 111.4 52.5125 111.048 52.5328C110.831 52.5215 110.615 52.5627 110.418 52.6529C110.22 52.7431 110.048 52.8796 109.915 53.0508C109.621 53.4875 109.481 54.0091 109.515 54.5341C109.482 55.0596 109.616 55.582 109.899 56.0264C110.023 56.1971 110.187 56.3344 110.377 56.4259C110.568 56.5173 110.777 56.56 110.988 56.5501C111.354 56.5686 111.715 56.4545 112.003 56.2287C112.27 55.9868 112.438 55.6541 112.473 55.2953H113.34C113.332 55.5829 113.265 55.8659 113.145 56.1271C113.024 56.3884 112.852 56.6225 112.639 56.8153C112.161 57.1991 111.559 57.3934 110.947 57.3611C110.62 57.3771 110.293 57.3182 109.992 57.1888C109.691 57.0594 109.423 56.863 109.21 56.6146C108.793 56.0053 108.573 55.2834 108.578 54.5455C108.583 53.8077 108.814 53.0889 109.238 52.4854C109.465 52.2329 109.745 52.0342 110.058 51.9037C110.371 51.7733 110.709 51.7145 111.048 51.7316C111.636 51.702 112.216 51.8873 112.678 52.2529C112.881 52.4281 113.044 52.6448 113.156 52.8882C113.268 53.1317 113.327 53.3963 113.328 53.6644H112.432Z" fill="white"/>
<path d="M117.85 57.198V53.9411C117.888 53.5633 117.802 53.1836 117.604 52.8592C117.496 52.75 117.364 52.6666 117.219 52.615C117.074 52.5635 116.92 52.5452 116.766 52.5614C116.339 52.5397 115.92 52.6861 115.6 52.9693C115.454 53.1116 115.34 53.2832 115.265 53.4728C115.191 53.6624 115.157 53.8656 115.167 54.0692V57.198H114.262V49.918H115.167V52.6503C115.325 52.3705 115.561 52.1431 115.847 51.996C116.161 51.8399 116.508 51.7626 116.858 51.7708C117.209 51.7606 117.559 51.8222 117.885 51.9519C118.15 52.0612 118.375 52.2502 118.528 52.4929C118.616 52.6311 118.678 52.7843 118.711 52.9449C118.754 53.2167 118.772 53.4921 118.765 53.7673V57.198H117.85Z" fill="white"/>
<path d="M120.125 49.918H121.03V50.9305H120.125V49.918ZM120.125 51.9046H121.03V57.1985H120.125V51.9046Z" fill="white"/>
<path d="M126.047 55.487H126.943C126.868 56.0281 126.591 56.5207 126.168 56.8658C125.714 57.2128 125.153 57.3908 124.583 57.3692C124.251 57.3852 123.92 57.327 123.613 57.1988C123.306 57.0707 123.032 56.8758 122.811 56.6284C122.353 56.0577 122.122 55.338 122.162 54.6075C122.117 53.8476 122.345 53.0967 122.806 52.4911C123.025 52.2378 123.299 52.0377 123.607 51.906C123.915 51.7742 124.248 51.7143 124.583 51.7307C124.915 51.7108 125.248 51.7631 125.559 51.8841C125.869 52.005 126.15 52.1918 126.382 52.4315C126.836 52.9886 127.063 53.6967 127.017 54.4141C127.017 54.5226 127.017 54.6034 127.016 54.6564C127.014 54.7078 127.01 54.759 127.003 54.8098H123.113C123.092 55.2775 123.242 55.7369 123.535 56.1022C123.804 56.3616 124.154 56.5208 124.527 56.553C124.899 56.5852 125.272 56.4886 125.581 56.2792C125.828 56.0812 125.994 55.7993 126.047 55.487ZM123.108 54.0682H126.068C126.091 53.6517 125.954 53.2421 125.685 52.9235C125.391 52.6655 125.014 52.5226 124.623 52.5213C124.232 52.5199 123.854 52.6602 123.559 52.9162C123.279 53.2363 123.12 53.6435 123.108 54.0682Z" fill="white"/>
<path d="M129.362 57.1977L127.375 51.9043H128.345L129.85 56.1452L131.321 51.9043H132.291L130.324 57.1977H129.362Z" fill="white"/>
<path d="M136.637 55.487H137.533C137.458 56.0281 137.181 56.5207 136.758 56.8658C136.304 57.2128 135.743 57.3908 135.172 57.3692C134.841 57.3852 134.509 57.327 134.203 57.1988C133.896 57.0707 133.622 56.8758 133.4 56.6284C132.943 56.0577 132.712 55.338 132.752 54.6075C132.706 53.8476 132.935 53.0967 133.396 52.4911C133.615 52.2378 133.889 52.0377 134.197 51.906C134.504 51.7742 134.838 51.7143 135.172 51.7307C135.505 51.7108 135.838 51.7631 136.149 51.8841C136.459 52.005 136.74 52.1918 136.971 52.4315C137.426 52.9886 137.653 53.6967 137.607 54.4141C137.607 54.5226 137.607 54.6034 137.605 54.6564C137.604 54.7078 137.6 54.759 137.592 54.8098H133.703C133.682 55.2775 133.832 55.7369 134.125 56.1022C134.394 56.3616 134.744 56.5208 135.117 56.553C135.489 56.5852 135.861 56.4886 136.171 56.2792C136.418 56.0812 136.584 55.7993 136.637 55.487ZM133.697 54.0682H136.657C136.681 53.6517 136.544 53.2421 136.275 52.9235C135.981 52.6655 135.604 52.5226 135.213 52.5213C134.822 52.5199 134.444 52.6602 134.149 52.9162C133.869 53.2363 133.71 53.6435 133.697 54.0682Z" fill="white"/>
<path d="M139.887 56.0957H138.855V57.198H139.887V56.0957Z" fill="white"/>
<path d="M144.055 54.8006H145.027C145.021 55.0369 145.067 55.2715 145.159 55.4889C145.252 55.7062 145.39 55.9013 145.564 56.0611C145.951 56.3888 146.448 56.5569 146.954 56.5311C147.432 56.5574 147.907 56.4327 148.311 56.1745C148.468 56.068 148.596 55.9233 148.683 55.754C148.77 55.5847 148.812 55.3962 148.807 55.2061C148.807 54.6488 148.186 54.2254 146.945 53.9358C146.871 53.9194 146.813 53.9056 146.773 53.8966C146.059 53.785 145.378 53.5176 144.778 53.1134C144.612 52.9564 144.483 52.7651 144.399 52.5528C144.315 52.3405 144.279 52.1124 144.293 51.8847C144.283 51.5854 144.344 51.288 144.47 51.0163C144.596 50.7445 144.783 50.506 145.018 50.3198C145.571 49.9033 146.253 49.6943 146.945 49.7291C147.644 49.6897 148.332 49.9109 148.878 50.35C149.114 50.5642 149.3 50.8277 149.424 51.122C149.547 51.4162 149.604 51.734 149.591 52.0527L148.63 52.0576C148.627 51.8459 148.581 51.637 148.494 51.444C148.407 51.2509 148.281 51.0777 148.125 50.935C147.77 50.6584 147.328 50.5198 146.879 50.545C146.461 50.5239 146.047 50.6356 145.696 50.864C145.557 50.9567 145.443 51.083 145.366 51.2312C145.289 51.3793 145.25 51.5446 145.253 51.7117C145.253 52.2755 145.864 52.6956 147.086 52.9722C147.266 53.0146 147.406 53.0481 147.502 53.0701C147.522 53.0742 147.557 53.0824 147.608 53.0954C148.174 53.1887 148.715 53.3954 149.199 53.7032C149.395 53.8655 149.55 54.0714 149.652 54.3045C149.759 54.5533 149.812 54.8219 149.808 55.0927C149.82 55.4124 149.757 55.7305 149.624 56.0213C149.49 56.3122 149.291 56.5678 149.041 56.7677C148.442 57.2101 147.708 57.4302 146.965 57.3902C146.206 57.4369 145.456 57.1983 144.863 56.7212C144.604 56.474 144.398 56.1758 144.259 55.8453C144.12 55.5148 144.05 55.1591 144.055 54.8006Z" fill="white"/>
<path d="M151.844 51.9043V55.1515C151.806 55.5304 151.894 55.9111 152.092 56.2358C152.201 56.3468 152.333 56.4319 152.479 56.4847C152.624 56.5376 152.78 56.5568 152.934 56.5409C153.154 56.5563 153.374 56.5237 153.579 56.4455C153.784 56.3673 153.97 56.2454 154.124 56.0881C154.417 55.7085 154.56 55.2341 154.525 54.7558V51.9043H155.432V57.198H154.566V56.4074C154.392 56.7012 154.139 56.9408 153.836 57.0992C153.509 57.2602 153.148 57.34 152.784 57.3318C152.447 57.3394 152.113 57.2752 151.803 57.1433C151.542 57.0326 151.319 56.8469 151.163 56.6097C151.076 56.4712 151.015 56.318 150.983 56.1577C150.938 55.8859 150.92 55.6106 150.927 55.3353V51.9045L151.844 51.9043Z" fill="white"/>
<path d="M160.391 53.6645C160.387 53.5044 160.349 53.3471 160.28 53.2028C160.21 53.0584 160.112 52.9302 159.99 52.8266C159.706 52.6165 159.358 52.5125 159.006 52.5328C158.789 52.5216 158.573 52.5629 158.375 52.653C158.178 52.7432 158.005 52.8797 157.871 53.0509C157.579 53.4882 157.439 54.0094 157.472 54.5342C157.439 55.0597 157.573 55.5821 157.856 56.0264C157.98 56.1971 158.145 56.3343 158.335 56.4257C158.525 56.5171 158.735 56.5599 158.945 56.5502C159.311 56.5692 159.672 56.455 159.96 56.2288C160.228 55.9871 160.395 55.6542 160.43 55.2954H161.296C161.288 55.5828 161.222 55.8657 161.102 56.127C160.982 56.3882 160.811 56.6224 160.597 56.8154C160.12 57.1989 159.518 57.3932 158.906 57.3612C158.579 57.3771 158.252 57.3181 157.95 57.1887C157.649 57.0594 157.381 56.863 157.167 56.6147C156.751 56.0053 156.53 55.2836 156.535 54.5458C156.54 53.8079 156.77 53.0892 157.194 52.4855C157.421 52.2331 157.702 52.0345 158.015 51.9041C158.329 51.7737 158.667 51.7148 159.006 51.7316C159.594 51.7017 160.173 51.8871 160.634 52.253C160.837 52.4282 161 52.6448 161.113 52.8882C161.226 53.1316 161.285 53.3963 161.287 53.6645H160.391Z" fill="white"/>
<path d="M165.8 53.6644C165.796 53.5044 165.758 53.347 165.689 53.2026C165.62 53.0582 165.522 52.93 165.4 52.8265C165.116 52.6164 164.767 52.5125 164.415 52.5328C164.198 52.5215 163.982 52.5627 163.785 52.6529C163.588 52.7431 163.415 52.8796 163.282 53.0508C162.988 53.4875 162.848 54.0091 162.882 54.5341C162.849 55.0596 162.984 55.582 163.266 56.0264C163.39 56.1971 163.554 56.3344 163.745 56.4259C163.935 56.5173 164.145 56.56 164.355 56.5501C164.721 56.5686 165.082 56.4545 165.37 56.2287C165.638 55.9868 165.805 55.6541 165.84 55.2953H166.707C166.699 55.5829 166.633 55.8659 166.512 56.1271C166.392 56.3884 166.219 56.6225 166.006 56.8153C165.528 57.1991 164.926 57.3934 164.315 57.3611C163.987 57.3771 163.661 57.3182 163.359 57.1888C163.058 57.0594 162.791 56.863 162.577 56.6146C162.161 56.0053 161.94 55.2834 161.945 54.5455C161.951 53.8077 162.181 53.0889 162.605 52.4854C162.832 52.2329 163.112 52.0342 163.425 51.9037C163.738 51.7733 164.076 51.7145 164.415 51.7316C165.004 51.702 165.583 51.8873 166.045 52.2529C166.248 52.4281 166.411 52.6448 166.523 52.8882C166.635 53.1317 166.694 53.3963 166.695 53.6644H165.8Z" fill="white"/>
<path d="M171.26 55.4871H172.156C172.083 56.0286 171.806 56.5217 171.381 56.8659C170.927 57.213 170.367 57.391 169.796 57.3693C169.464 57.3851 169.133 57.3268 168.827 57.1986C168.521 57.0705 168.247 56.8757 168.026 56.6285C167.567 56.0582 167.336 55.3382 167.377 54.6075C167.331 53.8479 167.559 53.0969 168.02 52.4911C168.239 52.2378 168.512 52.0377 168.82 51.9059C169.128 51.7742 169.462 51.7143 169.796 51.7308C170.129 51.7107 170.462 51.7629 170.772 51.8839C171.083 52.0049 171.364 52.1917 171.595 52.4316C172.051 52.988 172.278 53.6965 172.232 54.4142C172.232 54.5227 172.231 54.6035 172.231 54.6565C172.229 54.7095 172.223 54.7601 172.217 54.8099H168.327C168.307 55.2777 168.457 55.7368 168.75 56.1022C169.019 56.3617 169.369 56.5208 169.742 56.5531C170.114 56.5853 170.486 56.4886 170.796 56.2793C171.043 56.0808 171.208 55.799 171.26 55.4871ZM168.322 54.0682H171.281C171.305 53.6517 171.168 53.2418 170.898 52.9236C170.605 52.6656 170.227 52.5227 169.837 52.5213C169.446 52.52 169.067 52.6603 168.772 52.9162C168.492 53.2359 168.333 53.6435 168.322 54.0682Z" fill="white"/>
<path d="M176.893 55.4871H177.789C177.716 56.0286 177.438 56.5217 177.014 56.8659C176.56 57.213 176 57.391 175.429 57.3693C175.097 57.3851 174.766 57.3268 174.46 57.1986C174.154 57.0705 173.88 56.8757 173.658 56.6285C173.2 56.0582 172.969 55.3382 173.01 54.6075C172.964 53.8479 173.192 53.0969 173.653 52.4911C173.871 52.2378 174.145 52.0377 174.453 51.9059C174.761 51.7742 175.094 51.7143 175.429 51.7308C175.761 51.7107 176.095 51.7629 176.405 51.8839C176.716 52.0049 176.996 52.1917 177.228 52.4316C177.683 52.988 177.911 53.6965 177.865 54.4142C177.865 54.5227 177.863 54.6035 177.863 54.6565C177.862 54.7095 177.856 54.7601 177.85 54.8099H173.959C173.94 55.2777 174.09 55.7368 174.383 56.1022C174.652 56.3617 175.002 56.5208 175.375 56.5531C175.747 56.5853 176.119 56.4886 176.429 56.2793C176.675 56.0808 176.841 55.799 176.893 55.4871ZM173.955 54.0682H176.914C176.938 53.6517 176.801 53.2418 176.531 52.9236C176.237 52.6656 175.86 52.5227 175.469 52.5213C175.078 52.52 174.7 52.6603 174.405 52.9162C174.125 53.2359 173.966 53.6435 173.955 54.0682Z" fill="white"/>
<path d="M183.615 49.918V57.1983H182.74V56.5309C182.528 56.7938 182.26 57.0064 181.956 57.1534C181.653 57.2942 181.323 57.3653 180.99 57.3615C180.664 57.3744 180.34 57.3127 180.042 57.1812C179.744 57.0497 179.481 56.8518 179.271 56.6027C178.819 56.0241 178.591 55.3018 178.629 54.5687C178.59 53.8246 178.818 53.0909 179.272 52.5005C179.481 52.2494 179.744 52.0496 180.042 51.9163C180.339 51.7831 180.664 51.72 180.99 51.7319C181.334 51.7249 181.675 51.7952 181.988 51.9375C182.285 52.0784 182.543 52.2896 182.74 52.5527V49.9182L183.615 49.918ZM182.772 54.5146C182.809 53.9884 182.666 53.4651 182.366 53.0314C182.218 52.8611 182.033 52.7275 181.825 52.641C181.616 52.5545 181.391 52.5175 181.166 52.5329C180.939 52.5214 180.713 52.5649 180.507 52.6598C180.301 52.7548 180.121 52.8982 179.982 53.0779C179.678 53.5351 179.531 54.0797 179.566 54.628C179.537 55.1384 179.689 55.6426 179.995 56.0517C180.139 56.223 180.32 56.3589 180.525 56.4488C180.729 56.5386 180.952 56.5801 181.175 56.5698C181.4 56.5815 181.624 56.5392 181.829 56.4463C182.034 56.3535 182.214 56.2129 182.354 56.0362C182.659 55.5898 182.806 55.0542 182.772 54.5146Z" fill="white"/>
<path d="M186.262 56.0957H185.23V57.198H186.262V56.0957Z" fill="white"/>
</g>
<defs>
<clipPath id="clip0_1411_28">
<rect width="249" height="62.1111" fill="white"/>
</clipPath>
</defs>
</svg>
