<svg width="103" height="104" viewBox="0 0 103 104" fill="none" xmlns="http://www.w3.org/2000/svg">
<circle cx="51.5" cy="52.5" r="51.5" fill="#16C74D" fill-opacity="0.11"/>
<circle cx="85" cy="14" r="13" fill="#0B434B"/>
<path d="M43.4605 27C34.995 27 28.1048 33.8901 28.1048 42.3556C28.1048 50.8211 34.995 57.7113 43.4605 57.7113C51.926 57.7113 58.8161 50.8211 58.8161 42.3556C58.8161 33.8901 51.926 27 43.4605 27ZM43.4605 29.5593C50.5428 29.5593 56.2568 35.2732 56.2568 42.3556C56.2568 49.438 50.5428 55.152 43.4605 55.152C36.3782 55.152 30.6641 49.438 30.6641 42.3556C30.6641 35.2732 36.3782 29.5593 43.4605 29.5593ZM43.5604 31.4787C42.8543 31.4787 42.2808 32.0516 42.2808 32.7584V33.6181C40.0715 34.1329 38.3419 36.0828 38.3419 38.5967C38.3419 40.2009 39.1281 41.4549 40.0814 42.1557C41.0348 42.8565 42.0556 43.172 42.9006 43.5752C44.411 44.2053 45.9686 44.8854 45.9797 46.2745C45.9797 47.9856 44.9962 48.8338 43.4405 48.8338C42.2333 48.8338 41.2206 47.8997 40.7612 46.9743C40.5062 46.3125 39.6322 45.977 39.0017 46.2945C38.3712 46.612 38.1092 47.5114 38.4819 48.114C39.1561 49.4719 40.4793 50.8305 42.2808 51.2531V51.9529C42.2808 52.6596 42.8543 53.2325 43.5604 53.2325C44.2666 53.2325 44.84 52.6596 44.84 51.9529V51.1931C46.9291 50.5948 48.519 48.6941 48.519 46.2745C48.519 44.6702 47.7529 43.3964 46.7995 42.6955C45.8461 41.9947 44.8253 41.6792 43.9803 41.2759C42.4778 40.6471 40.9121 39.968 40.9012 38.5967C40.9012 36.8855 41.8846 36.0374 43.4405 36.0374C44.6476 36.0374 45.6602 36.9515 46.1197 37.8769C46.3748 38.5387 47.2486 38.8742 47.8792 38.5567C48.5097 38.2392 48.7516 37.3398 48.3791 36.7372C47.736 35.4421 46.5145 34.1572 44.84 33.6781V32.7584C44.84 32.0516 44.2666 31.4787 43.5604 31.4787ZM66.3739 44.9149C65.704 44.9463 65.1228 45.5845 65.1543 46.2545C65.1856 46.9245 65.824 47.5056 66.4939 47.4742H74.9115L54.9772 67.4085L46.9194 59.3508C46.6574 59.0832 46.2732 58.94 45.8998 58.9709C45.6159 59.0016 45.3436 59.1306 45.14 59.3308L23.3862 79.8049C22.8994 80.2656 22.8655 81.1376 23.326 81.6245C23.7866 82.1112 24.6587 82.1251 25.1455 81.6641L45.9996 62.0497L53.8973 69.9475C54.32 70.5774 55.3474 70.6708 55.8767 70.1273L76.7308 49.2734V57.7109C76.7218 58.3867 77.3346 59.0105 78.0104 59.0105C78.6863 59.0105 79.2992 58.3867 79.2901 57.7109V46.1942C79.29 45.5242 78.6805 44.9147 78.0104 44.9146C73.9603 44.9146 69.8468 44.915 66.3739 44.9149Z" fill="#0B434B"/>
<path d="M84.9994 14.9551L80.1389 19.8156C80.0775 19.8784 80.0037 19.9278 79.9222 19.9605C79.8407 19.9933 79.7532 20.0087 79.6654 20.0058C79.5341 20.0046 79.406 19.9649 79.297 19.8915C79.1881 19.8182 79.103 19.7145 79.0524 19.5932C79.0019 19.472 78.988 19.3386 79.0126 19.2095C79.0371 19.0805 79.099 18.9615 79.1906 18.8673L84.0511 14.0068L79.1906 9.14628C79.1278 9.08488 79.0784 9.01108 79.0457 8.92958C79.0129 8.84807 78.9975 8.76065 79.0003 8.67286C78.9984 8.58497 79.0142 8.49759 79.0469 8.416C79.0796 8.33441 79.1286 8.2603 79.1907 8.19814C79.2529 8.13597 79.327 8.08706 79.4086 8.05433C79.4902 8.02161 79.5776 8.00576 79.6654 8.00775C79.7532 8.00489 79.8407 8.02032 79.9222 8.05307C80.0037 8.08582 80.0775 8.13517 80.1389 8.19799L84.9994 13.0585L89.8599 8.19799C89.953 8.1036 90.0722 8.03921 90.2022 8.01306C90.3322 7.98691 90.467 8.00022 90.5894 8.05126C90.7118 8.10229 90.8161 8.18874 90.889 8.2995C90.9619 8.41026 91 8.54028 90.9984 8.67286C91.0013 8.76065 90.9859 8.84807 90.9531 8.92958C90.9204 9.01108 90.871 9.08488 90.8082 9.14628L85.9477 14.0068L90.8082 18.8673C90.9271 18.9944 90.9919 19.1628 90.989 19.3368C90.9861 19.5108 90.9156 19.6769 90.7926 19.8C90.6695 19.923 90.5034 19.9935 90.3294 19.9964C90.1554 19.9993 89.987 19.9345 89.8599 19.8156L84.9994 14.9551Z" fill="#0B434B"/>
<circle cx="84.5" cy="14.5" r="14.5" fill="#259D4A"/>
<path d="M84.498 15.3704C84.1439 15.7237 83.5706 15.7235 83.2169 15.3698L78.8901 11.043C78.5378 10.6907 77.9673 10.6888 77.6127 11.0388L76.9931 11.6502C76.6352 12.0035 76.6333 12.5805 76.9888 12.9361L83.2163 19.1636C83.5702 19.5175 84.144 19.5175 84.498 19.1636L99.3236 4.33794C99.6775 3.98403 99.6775 3.41023 99.3236 3.05631L98.7201 2.45275C98.3664 2.09906 97.793 2.0988 97.439 2.45218L84.498 15.3704Z" fill="white"/>
</svg>
