<svg width="117" height="117" viewBox="0 0 117 117" fill="none" xmlns="http://www.w3.org/2000/svg">
<g id="Group 41149">
<path id="Rectangle 8" d="M9.53674e-07 117L9.53674e-07 102.375L14.625 117H9.53674e-07Z" fill="#2E7E8A" fill-opacity="0.19"/>
<path id="Rectangle 9" d="M14.625 117L14.625 102.375L29.25 117H14.625Z" fill="#2E7E8A" fill-opacity="0.19"/>
<path id="Rectangle 10" d="M29.25 117V102.375L43.875 117H29.25Z" fill="#2E7E8A" fill-opacity="0.19"/>
<path id="Rectangle 11" d="M43.875 117V102.375L58.5 117H43.875Z" fill="#2E7E8A" fill-opacity="0.19"/>
<path id="Rectangle 12" d="M58.5 117V102.375L73.125 117H58.5Z" fill="#2E7E8A" fill-opacity="0.19"/>
<path id="Rectangle 13" d="M73.125 117V102.375L87.75 117H73.125Z" fill="#2E7E8A" fill-opacity="0.19"/>
<path id="Rectangle 14" d="M87.75 117V102.375L102.375 117H87.75Z" fill="#2E7E8A" fill-opacity="0.19"/>
<path id="Rectangle 15" d="M102.375 117V102.375L117 117H102.375Z" fill="#2E7E8A" fill-opacity="0.19"/>
<path id="Rectangle 16" d="M9.53674e-07 102.375L9.53674e-07 87.75L14.625 102.375H9.53674e-07Z" fill="#2E7E8A" fill-opacity="0.19"/>
<path id="Rectangle 17" d="M14.625 102.375L14.625 87.75L29.25 102.375H14.625Z" fill="#2E7E8A" fill-opacity="0.19"/>
<path id="Rectangle 18" d="M29.25 102.375V87.75L43.875 102.375H29.25Z" fill="#2E7E8A" fill-opacity="0.19"/>
<path id="Rectangle 19" d="M43.875 102.375V87.75L58.5 102.375H43.875Z" fill="#2E7E8A" fill-opacity="0.19"/>
<path id="Rectangle 20" d="M58.5 102.375V87.75L73.125 102.375H58.5Z" fill="#2E7E8A" fill-opacity="0.19"/>
<path id="Rectangle 21" d="M73.125 102.375V87.75L87.75 102.375H73.125Z" fill="#2E7E8A" fill-opacity="0.19"/>
<path id="Rectangle 22" d="M87.75 102.375V87.75L102.375 102.375H87.75Z" fill="#2E7E8A" fill-opacity="0.19"/>
<path id="Rectangle 23" d="M102.375 102.375V87.75L117 102.375H102.375Z" fill="#2E7E8A" fill-opacity="0.19"/>
<path id="Rectangle 24" d="M9.53674e-07 87.75L9.53674e-07 73.125L14.625 87.75H9.53674e-07Z" fill="#2E7E8A" fill-opacity="0.19"/>
<path id="Rectangle 25" d="M14.625 87.75L14.625 73.125L29.25 87.75H14.625Z" fill="#2E7E8A" fill-opacity="0.19"/>
<path id="Rectangle 26" d="M29.25 87.75V73.125L43.875 87.75H29.25Z" fill="#2E7E8A" fill-opacity="0.19"/>
<path id="Rectangle 27" d="M43.875 87.75V73.125L58.5 87.75H43.875Z" fill="#2E7E8A" fill-opacity="0.19"/>
<path id="Rectangle 28" d="M58.5 87.75V73.125L73.125 87.75H58.5Z" fill="#2E7E8A" fill-opacity="0.19"/>
<path id="Rectangle 29" d="M73.125 87.75V73.125L87.75 87.75H73.125Z" fill="#2E7E8A" fill-opacity="0.19"/>
<path id="Rectangle 30" d="M87.75 87.75V73.125L102.375 87.75H87.75Z" fill="#2E7E8A" fill-opacity="0.19"/>
<path id="Rectangle 31" d="M102.375 87.75V73.125L117 87.75H102.375Z" fill="#2E7E8A" fill-opacity="0.19"/>
<path id="Rectangle 32" d="M9.53674e-07 73.125L9.53674e-07 58.5L14.625 73.125H9.53674e-07Z" fill="#2E7E8A" fill-opacity="0.19"/>
<path id="Rectangle 33" d="M14.625 73.125L14.625 58.5L29.25 73.125H14.625Z" fill="#2E7E8A" fill-opacity="0.19"/>
<path id="Rectangle 34" d="M29.25 73.125V58.5L43.875 73.125H29.25Z" fill="#2E7E8A" fill-opacity="0.19"/>
<path id="Rectangle 35" d="M43.875 73.125V58.5L58.5 73.125H43.875Z" fill="#2E7E8A" fill-opacity="0.19"/>
<path id="Rectangle 36" d="M58.5 73.125V58.5L73.125 73.125H58.5Z" fill="#2E7E8A" fill-opacity="0.19"/>
<path id="Rectangle 37" d="M73.125 73.125V58.5L87.75 73.125H73.125Z" fill="#2E7E8A" fill-opacity="0.19"/>
<path id="Rectangle 38" d="M87.75 73.125V58.5L102.375 73.125H87.75Z" fill="#2E7E8A" fill-opacity="0.19"/>
<path id="Rectangle 39" d="M102.375 73.125V58.5L117 73.125H102.375Z" fill="#2E7E8A" fill-opacity="0.19"/>
<path id="Rectangle 40" d="M9.53674e-07 58.5L9.53674e-07 43.875L14.625 58.5H9.53674e-07Z" fill="#2E7E8A" fill-opacity="0.19"/>
<path id="Rectangle 41" d="M14.625 58.5L14.625 43.875L29.25 58.5H14.625Z" fill="#2E7E8A" fill-opacity="0.19"/>
<path id="Rectangle 42" d="M29.25 58.5V43.875L43.875 58.5H29.25Z" fill="#2E7E8A" fill-opacity="0.19"/>
<path id="Rectangle 43" d="M43.875 58.5V43.875L58.5 58.5H43.875Z" fill="#2E7E8A" fill-opacity="0.19"/>
<path id="Rectangle 44" d="M58.5 58.5V43.875L73.125 58.5H58.5Z" fill="#2E7E8A" fill-opacity="0.19"/>
<path id="Rectangle 45" d="M73.125 58.5V43.875L87.75 58.5H73.125Z" fill="#2E7E8A" fill-opacity="0.19"/>
<path id="Rectangle 46" d="M87.75 58.5V43.875L102.375 58.5H87.75Z" fill="#2E7E8A" fill-opacity="0.19"/>
<path id="Rectangle 47" d="M102.375 58.5V43.875L117 58.5H102.375Z" fill="#2E7E8A" fill-opacity="0.19"/>
<path id="Rectangle 48" d="M9.53674e-07 43.875L9.53674e-07 29.25L14.625 43.875H9.53674e-07Z" fill="#2E7E8A" fill-opacity="0.19"/>
<path id="Rectangle 49" d="M14.625 43.875L14.625 29.25L29.25 43.875H14.625Z" fill="#2E7E8A" fill-opacity="0.19"/>
<path id="Rectangle 50" d="M29.25 43.875V29.25L43.875 43.875H29.25Z" fill="#2E7E8A" fill-opacity="0.19"/>
<path id="Rectangle 51" d="M43.875 43.875V29.25L58.5 43.875H43.875Z" fill="#2E7E8A" fill-opacity="0.19"/>
<path id="Rectangle 52" d="M58.5 43.875V29.25L73.125 43.875H58.5Z" fill="#2E7E8A" fill-opacity="0.19"/>
<path id="Rectangle 53" d="M73.125 43.875V29.25L87.75 43.875H73.125Z" fill="#2E7E8A" fill-opacity="0.19"/>
<path id="Rectangle 54" d="M87.75 43.875V29.25L102.375 43.875H87.75Z" fill="#2E7E8A" fill-opacity="0.19"/>
<path id="Rectangle 55" d="M102.375 43.875V29.25L117 43.875H102.375Z" fill="#2E7E8A" fill-opacity="0.19"/>
<path id="Rectangle 56" d="M9.53674e-07 29.25L9.53674e-07 14.625L14.625 29.25H9.53674e-07Z" fill="#2E7E8A" fill-opacity="0.19"/>
<path id="Rectangle 57" d="M14.625 29.25L14.625 14.625L29.25 29.25H14.625Z" fill="#2E7E8A" fill-opacity="0.19"/>
<path id="Rectangle 58" d="M29.25 29.25V14.625L43.875 29.25H29.25Z" fill="#2E7E8A" fill-opacity="0.19"/>
<path id="Rectangle 59" d="M43.875 29.25V14.625L58.5 29.25H43.875Z" fill="#2E7E8A" fill-opacity="0.19"/>
<path id="Rectangle 60" d="M58.5 29.25V14.625L73.125 29.25H58.5Z" fill="#2E7E8A" fill-opacity="0.19"/>
<path id="Rectangle 61" d="M73.125 29.25V14.625L87.75 29.25H73.125Z" fill="#2E7E8A" fill-opacity="0.19"/>
<path id="Rectangle 62" d="M87.75 29.25V14.625L102.375 29.25H87.75Z" fill="#2E7E8A" fill-opacity="0.19"/>
<path id="Rectangle 63" d="M102.375 29.25V14.625L117 29.25H102.375Z" fill="#2E7E8A" fill-opacity="0.19"/>
<path id="Rectangle 64" d="M9.53674e-07 14.625L9.53674e-07 9.53674e-07L14.625 14.625L9.53674e-07 14.625Z" fill="#2E7E8A" fill-opacity="0.19"/>
<path id="Rectangle 65" d="M14.625 14.625L14.625 9.53674e-07L29.25 14.625L14.625 14.625Z" fill="#2E7E8A" fill-opacity="0.19"/>
<path id="Rectangle 66" d="M29.25 14.625V9.53674e-07L43.875 14.625L29.25 14.625Z" fill="#2E7E8A" fill-opacity="0.19"/>
<path id="Rectangle 67" d="M43.875 14.625V9.53674e-07L58.5 14.625L43.875 14.625Z" fill="#2E7E8A" fill-opacity="0.19"/>
<path id="Rectangle 68" d="M58.5 14.625V9.53674e-07L73.125 14.625L58.5 14.625Z" fill="#2E7E8A" fill-opacity="0.19"/>
<path id="Rectangle 69" d="M73.125 14.625V9.53674e-07L87.75 14.625L73.125 14.625Z" fill="#2E7E8A" fill-opacity="0.19"/>
<path id="Rectangle 70" d="M87.75 14.625V9.53674e-07L102.375 14.625L87.75 14.625Z" fill="#2E7E8A" fill-opacity="0.19"/>
<path id="Rectangle 71" d="M102.375 14.625V9.53674e-07L117 14.625L102.375 14.625Z" fill="#2E7E8A" fill-opacity="0.19"/>
</g>
</svg>
