<svg width="146" height="102" viewBox="0 0 146 102" fill="none" xmlns="http://www.w3.org/2000/svg">
<path d="M112.379 0.5C103.471 0.5 95.0953 3.96916 88.7959 10.2684C82.4965 16.5678 79.0273 24.9432 79.0273 33.8517C79.0273 38.4323 79.7869 42.7647 81.2851 46.7286C82.8317 50.8208 85.1279 54.4201 88.1098 57.4267C94.4539 63.823 103.597 67.2038 114.551 67.2038C114.635 67.2038 114.698 67.2086 114.744 67.2145C115.077 68.1181 114.731 71.9942 110.722 78.4531C106.519 85.2244 100.17 91.7327 93.3043 96.3088C92.2241 97.0289 91.7425 98.3711 92.1187 99.6136C92.4947 100.856 93.6398 101.706 94.938 101.706C100.611 101.706 113.236 97.8712 124.761 87.307C134.328 78.5388 145.731 62.5241 145.731 36.0238C145.731 26.0064 142.276 16.9032 136.001 10.3907C129.856 4.01246 121.467 0.5 112.379 0.5Z" fill="#0B434B"/>
<path d="M57.5868 10.3905C51.4417 4.01247 43.0528 0.5 33.9652 0.5C25.0566 0.5 16.6811 3.96916 10.3818 10.2684C4.08244 16.5678 0.613281 24.9432 0.613281 33.8517C0.613281 38.4323 1.37283 42.7647 2.87102 46.7286C4.41766 50.8208 6.71382 54.4201 9.69576 57.4267C16.0398 63.823 25.1831 67.2038 36.137 67.2038C36.2207 67.2038 36.2843 67.2086 36.3304 67.2145C36.6627 68.1181 36.3166 71.9942 32.3076 78.4531C28.1047 85.2246 21.7562 91.7327 14.8902 96.3088C13.81 97.0289 13.3284 98.3711 13.7046 99.6136C14.0807 100.856 15.2259 101.706 16.5239 101.706C22.1974 101.706 34.8216 97.8712 46.3473 87.307C55.9136 78.5388 67.317 62.5241 67.317 36.0238C67.3169 26.0063 63.8613 16.903 57.5868 10.3905Z" fill="#259D4A"/>
</svg>
