<svg width="119" height="83" viewBox="0 0 119 83" fill="none" xmlns="http://www.w3.org/2000/svg">
<path d="M52.1167 45.2119L52.7206 44.9837L52.1167 45.2119C53.3125 48.3756 53.9218 51.8415 53.9218 55.5169C53.9218 62.6327 51.1522 69.3194 46.1205 74.3511C41.0888 79.3826 34.4021 82.1523 27.2863 82.1523C20.0231 82.1523 13.3306 79.3469 8.42921 74.2597C3.42572 69.0664 0.65078 61.7868 0.65078 53.7398C0.65078 32.2716 9.87942 19.3347 17.5963 12.2617C26.931 3.70561 37.1087 0.652313 41.5564 0.652313C42.3311 0.652313 43.0144 1.15936 43.2387 1.90069L43.2388 1.90076C43.4632 2.64214 43.1758 3.44309 42.5313 3.87279C36.8388 7.66679 31.5779 13.0586 28.0882 18.6808C26.4227 21.3641 25.5044 23.5326 25.0381 25.1458C24.8051 25.9518 24.683 26.6261 24.6392 27.1614C24.5973 27.6738 24.6212 28.1253 24.7388 28.4452L24.8756 28.8172L25.2687 28.8672C25.3361 28.8758 25.4158 28.8812 25.5094 28.8812C34.3377 28.8812 41.6374 31.6037 46.6799 36.6877C49.053 39.0804 50.8826 41.9466 52.1167 45.2119Z" stroke="#0B434B" stroke-opacity="0.51" stroke-width="1.30475"/>
<path d="M116.879 44.9813L116.269 45.2119C117.465 48.3756 118.074 51.8415 118.074 55.5169C118.074 62.6327 115.305 69.3194 110.273 74.3511C105.241 79.3826 98.5545 82.1523 91.4387 82.1523C84.1753 82.1523 77.4829 79.3469 72.5817 74.2598C67.5782 69.0665 64.8033 61.7869 64.8031 53.7398C64.8031 32.2716 74.0318 19.3347 81.7486 12.2617C91.0834 3.70561 101.261 0.652313 105.709 0.652313C106.483 0.652313 107.167 1.15934 107.391 1.90076C107.616 2.64214 107.328 3.44308 106.684 3.87279C100.991 7.66678 95.7303 13.0584 92.2406 18.6808C90.5751 21.3641 89.6567 23.5326 89.1905 25.1458C88.9575 25.9518 88.8354 26.6261 88.7916 27.1614C88.7497 27.6738 88.7735 28.1253 88.8912 28.4452L89.0279 28.817L89.4208 28.8672C89.4883 28.8758 89.5681 28.8812 89.6617 28.8812C98.4901 28.8812 105.79 31.6037 110.832 36.6877C113.205 39.0804 115.035 41.9466 116.269 45.2119L116.879 44.9813Z" stroke="#0B434B" stroke-opacity="0.51" stroke-width="1.30475"/>
</svg>
