<svg width="177" height="144" viewBox="0 0 177 144" fill="none" xmlns="http://www.w3.org/2000/svg">
<g opacity="0.2" filter="url(#filter0_d_1465_18878)">
<path d="M118.449 15.6523C111.628 15.6523 105.216 18.3084 100.393 23.1312C95.5701 27.9542 92.9141 34.3665 92.9141 41.1871C92.9141 44.694 93.4956 48.011 94.6426 51.0458C95.8268 54.1789 97.5848 56.9346 99.8678 59.2365C104.725 64.1336 111.725 66.722 120.112 66.722C120.176 66.722 120.224 66.7257 120.26 66.7303C120.514 67.4221 120.249 70.3897 117.18 75.3347C113.962 80.519 109.102 85.5018 103.845 89.0054C103.018 89.5567 102.649 90.5843 102.937 91.5356C103.225 92.4869 104.102 93.1374 105.096 93.1374C109.439 93.1374 119.105 90.2016 127.929 82.1135C135.253 75.4004 143.984 63.1392 143.984 42.85C143.984 35.1806 141.338 28.2109 136.534 23.2248C131.829 18.3416 125.406 15.6523 118.449 15.6523Z" fill="#259D4A"/>
<path d="M76.4989 23.2247C71.7941 18.3416 65.3714 15.6523 58.4137 15.6523C51.5932 15.6523 45.1807 18.3084 40.3579 23.1312C35.535 27.9542 32.8789 34.3665 32.8789 41.1871C32.8789 44.694 33.4604 48.011 34.6075 51.0458C35.7916 54.1789 37.5496 56.9346 39.8326 59.2365C44.6897 64.1336 51.69 66.722 60.0766 66.722C60.1406 66.722 60.1893 66.7257 60.2246 66.7303C60.479 67.4221 60.214 70.3897 57.1447 75.3347C53.9268 80.5191 49.0664 85.5018 43.8096 89.0054C42.9826 89.5567 42.6139 90.5843 42.9019 91.5356C43.1899 92.4869 44.0666 93.1374 45.0604 93.1374C49.4041 93.1374 59.0695 90.2016 67.8937 82.1135C75.2179 75.4004 83.9486 63.1392 83.9486 42.85C83.9485 35.1804 81.3028 28.2108 76.4989 23.2247Z" fill="#259D4A"/>
</g>
<defs>
<filter id="filter0_d_1465_18878" x="0.186974" y="0.569647" width="176.489" height="142.869" filterUnits="userSpaceOnUse" color-interpolation-filters="sRGB">
<feFlood flood-opacity="0" result="BackgroundImageFix"/>
<feColorMatrix in="SourceAlpha" type="matrix" values="0 0 0 0 0 0 0 0 0 0 0 0 0 0 0 0 0 0 127 0" result="hardAlpha"/>
<feOffset dy="17.6092"/>
<feGaussianBlur stdDeviation="16.346"/>
<feComposite in2="hardAlpha" operator="out"/>
<feColorMatrix type="matrix" values="0 0 0 0 0 0 0 0 0 0 0 0 0 0 0 0 0 0 0.11 0"/>
<feBlend mode="normal" in2="BackgroundImageFix" result="effect1_dropShadow_1465_18878"/>
<feBlend mode="normal" in="SourceGraphic" in2="effect1_dropShadow_1465_18878" result="shape"/>
</filter>
</defs>
</svg>
