<svg width="74" height="136" viewBox="0 0 74 136" fill="none" xmlns="http://www.w3.org/2000/svg">
<circle cx="35.5111" cy="100.488" r="35.5111" fill="#259D4A" fill-opacity="0.16"/>
<path d="M38.3916 103.444C22.0965 103.444 11.2675 94.4713 11.2675 81.0639H23.1278C23.1278 87.9739 29.2127 92.5117 38.3916 92.5117C48.2924 92.5117 54.8929 88.077 54.8929 81.4765C54.8929 74.8759 48.2924 70.4412 38.3916 70.4412H31.791V59.5091H38.3916C46.9516 59.5091 52.7271 55.7963 52.7271 50.2271C52.7271 44.5547 46.9516 40.7388 38.3916 40.7388C30.1409 40.7388 24.6748 45.9986 24.6748 53.9399H13.0208C13.0208 39.5012 23.1278 29.8067 38.3916 29.8067C54.3772 29.8067 65 37.3354 65 48.6801C65 54.5587 60.7715 60.9529 54.4804 64.5626C62.0091 67.7597 66.9595 75.0822 66.9595 82.8172C66.9595 95.1932 55.5117 103.444 38.3916 103.444Z" fill="#0B434B"/>
<circle cx="61.0977" cy="32.0977" r="12.0977" fill="#259D4A"/>
<path d="M61.0962 32.8233C60.8008 33.1182 60.3225 33.118 60.0274 32.8229L56.4174 29.2129C56.1235 28.919 55.6475 28.9175 55.3517 29.2094L54.8347 29.7196C54.5361 30.0143 54.5345 30.4957 54.8312 30.7924L60.0269 35.9881C60.3222 36.2834 60.8009 36.2834 61.0962 35.9881L73.4656 23.6188C73.7609 23.3235 73.7609 22.8447 73.4656 22.5495L72.962 22.0459C72.6669 21.7508 72.1886 21.7506 71.8932 22.0454L61.0962 32.8233Z" fill="white"/>
</svg>
