<svg width="74" height="136" viewBox="0 0 74 136" fill="none" xmlns="http://www.w3.org/2000/svg">
<circle cx="35.5111" cy="100.488" r="35.5111" fill="#259D4A" fill-opacity="0.16"/>
<path d="M39.1135 103.444C22.4059 103.444 11.2675 94.1619 11.2675 77.6605H22.6122C23.0247 86.53 29.419 92.5117 38.8041 92.5117C46.7454 92.5117 54.6866 87.5613 54.6866 77.3511C54.6866 67.966 47.7767 61.778 37.3602 61.778C31.4816 61.778 26.0156 64.872 23.5404 69.6161L12.2988 68.1723L16.8367 31.2505H63.0404V42.1827H26.9438L25.1905 56.0025C29.3158 52.9085 35.4007 50.8459 40.3511 50.8459C56.3368 50.8459 66.9595 61.3655 66.9595 77.248C66.9595 92.9243 55.8211 103.444 39.1135 103.444Z" fill="#0B434B"/>
<circle cx="61.0977" cy="32.0977" r="12.0977" fill="#259D4A"/>
<path d="M61.0962 32.8233C60.8008 33.1182 60.3225 33.118 60.0274 32.8229L56.4174 29.2129C56.1235 28.919 55.6475 28.9175 55.3517 29.2094L54.8347 29.7196C54.5361 30.0143 54.5345 30.4957 54.8312 30.7924L60.0269 35.9881C60.3222 36.2834 60.8009 36.2834 61.0962 35.9881L73.4656 23.6188C73.7609 23.3235 73.7609 22.8447 73.4656 22.5495L72.962 22.0459C72.6669 21.7508 72.1886 21.7506 71.8932 22.0454L61.0962 32.8233Z" fill="white"/>
</svg>
