<svg width="72" height="108" viewBox="0 0 72 108" fill="none" xmlns="http://www.w3.org/2000/svg">
<ellipse cx="35.5111" cy="79.7988" rx="35.5111" ry="28.1999" fill="#259D4A" fill-opacity="0.16"/>
<path d="M28.5939 102V47.5456C25.4999 49.7114 19.0025 51.3615 12.2988 51.5678V41.8733C21.684 41.5639 27.0469 38.1605 29.1096 31.2505H40.9699V102H28.5939Z" fill="#0B434B"/>
<circle cx="48.0977" cy="12.0977" r="12.0977" fill="#259D4A"/>
<path d="M48.0962 12.8233C47.8008 13.1182 47.3225 13.118 47.0274 12.8229L43.4174 9.21293C43.1235 8.91903 42.6475 8.91746 42.3517 9.2094L41.8347 9.71957C41.5361 10.0143 41.5345 10.4957 41.8312 10.7924L47.0269 15.9881C47.3222 16.2834 47.8009 16.2834 48.0962 15.9881L60.4656 3.61875C60.7609 3.32348 60.7609 2.84474 60.4656 2.54946L59.962 2.04589C59.6669 1.7508 59.1886 1.75059 58.8932 2.04542L48.0962 12.8233Z" fill="white"/>
</svg>
