<svg width="72" height="108" viewBox="0 0 72 108" fill="none" xmlns="http://www.w3.org/2000/svg">
<ellipse cx="35.5111" cy="79.7988" rx="35.5111" ry="28.1999" fill="#259D4A" fill-opacity="0.16"/>
<path d="M28.5939 102V47.5456C25.4999 49.7114 19.0025 51.3615 12.2988 51.5678V41.8733C21.684 41.5639 27.0469 38.1605 29.1096 31.2505H40.9699V102H28.5939Z" fill="#0B434B"/>
<circle cx="46.0977" cy="25.0977" r="12.0977" fill="#259D4A"/>
<path d="M46.0962 25.8233C45.8008 26.1182 45.3225 26.118 45.0274 25.8229L41.4174 22.2129C41.1235 21.919 40.6475 21.9175 40.3517 22.2094L39.8347 22.7196C39.5361 23.0143 39.5345 23.4957 39.8312 23.7924L45.0269 28.9881C45.3222 29.2834 45.8009 29.2834 46.0962 28.9881L58.4656 16.6188C58.7609 16.3235 58.7609 15.8447 58.4656 15.5495L57.962 15.0459C57.6669 14.7508 57.1886 14.7506 56.8932 15.0454L46.0962 25.8233Z" fill="white"/>
</svg>
