<svg width="74" height="136" viewBox="0 0 74 136" fill="none" xmlns="http://www.w3.org/2000/svg">
<circle cx="35.5111" cy="100.488" r="35.5111" fill="#259D4A" fill-opacity="0.16"/>
<path d="M44.5796 102V83.9517H11.2675V75.3916L41.795 31.2505H56.9556V73.0195H66.9595V83.9517H56.9556V102H44.5796ZM26.2218 73.0195H44.5796V44.6579L26.2218 73.0195Z" fill="#0B434B"/>
<circle cx="61.0977" cy="32.0977" r="12.0977" fill="#259D4A"/>
<path d="M61.0962 32.8233C60.8008 33.1182 60.3225 33.118 60.0274 32.8229L56.4174 29.2129C56.1235 28.919 55.6475 28.9175 55.3517 29.2094L54.8347 29.7196C54.5361 30.0143 54.5345 30.4957 54.8312 30.7924L60.0269 35.9881C60.3222 36.2834 60.8009 36.2834 61.0962 35.9881L73.4656 23.6188C73.7609 23.3235 73.7609 22.8447 73.4656 22.5495L72.962 22.0459C72.6669 21.7508 72.1886 21.7506 71.8932 22.0454L61.0962 32.8233Z" fill="white"/>
</svg>
